<svg width="62" height="86" viewBox="0 0 62 86" fill="none" xmlns="http://www.w3.org/2000/svg">
<path d="M61.5981 30.7991C61.5981 50.0485 36.36 76.5699 30.7991 85.553C24.8104 76.1422 0 47.8089 0 30.7991C0 13.7892 13.7892 0 30.7991 0C47.8089 0 61.5981 13.7892 61.5981 30.7991Z" fill="#0E1336"/>
<path d="M15.0875 22.6856C15.0436 22.8394 14.9996 22.9932 14.9557 23.1471C14.9227 23.2899 14.8897 23.4272 14.8568 23.5591C14.7579 24.0755 14.6645 24.6688 14.5766 25.3391C14.4887 25.9983 14.4173 26.6906 14.3623 27.4158C14.3074 28.1299 14.2799 28.8332 14.2799 29.5254C14.2799 30.3824 14.3239 31.1735 14.4118 31.8987C14.4997 32.6129 14.6205 33.2776 14.7744 33.8929C14.9392 34.4973 15.115 35.0741 15.3018 35.6235L13.4064 36.2003C13.2416 35.7059 13.0823 35.1181 12.9284 34.4368C12.7856 33.7556 12.6647 33.0249 12.5658 32.2448C12.467 31.4537 12.4175 30.6571 12.4175 29.855C12.4175 29.3056 12.434 28.7562 12.467 28.2069C12.5109 27.6465 12.5549 27.0971 12.5988 26.5587C12.6428 26.0093 12.6922 25.4874 12.7471 24.993C12.8131 24.4876 12.868 24.0316 12.912 23.625C12.9229 23.4712 12.9339 23.3064 12.9449 23.1306C12.9559 22.9438 12.9559 22.779 12.9449 22.6361L15.0875 22.6856ZM12.1538 24.515C13.1976 24.515 14.1755 24.493 15.0875 24.4491C16.0105 24.4051 16.895 24.3282 17.741 24.2184C18.598 24.1085 19.4496 23.9492 20.2956 23.7404L20.3121 25.6522C19.7408 25.7511 19.109 25.8445 18.4167 25.9324C17.7355 26.0093 17.0213 26.0753 16.2742 26.1302C15.538 26.1851 14.8128 26.2291 14.0986 26.2621C13.3844 26.284 12.7142 26.295 12.0879 26.295C11.8022 26.295 11.4781 26.2895 11.1155 26.2785C10.7639 26.2675 10.4123 26.2566 10.0607 26.2456C9.72005 26.2236 9.42339 26.2071 9.17067 26.1961L9.12123 24.2843C9.30802 24.3063 9.57722 24.3392 9.92882 24.3832C10.2804 24.4161 10.654 24.4491 11.0496 24.4821C11.4561 24.504 11.8242 24.515 12.1538 24.515ZM19.2573 26.9213C19.2243 27.0202 19.1749 27.1575 19.109 27.3333C19.043 27.5091 18.9771 27.6904 18.9112 27.8772C18.8563 28.064 18.8123 28.2124 18.7793 28.3222C18.4607 29.3111 18.0706 30.2176 17.6092 31.0417C17.1587 31.8547 16.6697 32.5689 16.1423 33.1842C15.6149 33.7886 15.093 34.283 14.5766 34.6676C14.0382 35.0741 13.4229 35.4312 12.7307 35.7389C12.0384 36.0355 11.3407 36.1839 10.6375 36.1839C10.242 36.1839 9.87388 36.1015 9.53326 35.9366C9.19265 35.7718 8.91796 35.5136 8.70919 35.162C8.51142 34.7994 8.41253 34.3434 8.41253 33.7941C8.41253 33.2007 8.53339 32.6184 8.77512 32.047C9.01685 31.4757 9.35197 30.9318 9.78049 30.4154C10.209 29.899 10.7089 29.443 11.2803 29.0474C11.8517 28.6409 12.467 28.3222 13.1262 28.0915C13.6646 27.8937 14.2524 27.7344 14.8897 27.6135C15.538 27.4927 16.1753 27.4322 16.8016 27.4322C17.8234 27.4322 18.7354 27.619 19.5375 27.9926C20.3506 28.3662 20.9878 28.8771 21.4493 29.5254C21.9108 30.1736 22.1415 30.9318 22.1415 31.7998C22.1415 32.3822 22.0482 32.9535 21.8614 33.5139C21.6746 34.0633 21.3669 34.5742 20.9384 35.0466C20.5209 35.5191 19.966 35.9257 19.2738 36.2663C18.5816 36.6069 17.73 36.8541 16.7192 37.0079L15.6314 35.2774C16.6862 35.1565 17.5432 34.9203 18.2025 34.5687C18.8617 34.2061 19.3397 33.7721 19.6364 33.2667C19.944 32.7612 20.0979 32.2393 20.0979 31.7009C20.0979 31.2175 19.966 30.7835 19.7023 30.3989C19.4496 30.0143 19.065 29.7067 18.5486 29.4759C18.0432 29.2342 17.4169 29.1133 16.6697 29.1133C15.9226 29.1133 15.2523 29.1957 14.659 29.3606C14.0766 29.5254 13.5877 29.7012 13.1921 29.888C12.6428 30.1517 12.1538 30.4868 11.7253 30.8933C11.2968 31.2889 10.9617 31.7064 10.7199 32.1459C10.4782 32.5854 10.3573 32.992 10.3573 33.3655C10.3573 33.6292 10.4178 33.8325 10.5386 33.9754C10.6595 34.1072 10.8518 34.1731 11.1155 34.1731C11.511 34.1731 11.967 34.0468 12.4834 33.7941C12.9999 33.5304 13.5108 33.1623 14.0162 32.6898C14.6095 32.1404 15.1699 31.4812 15.6973 30.712C16.2247 29.9429 16.6587 28.987 16.9993 27.8443C17.0323 27.7344 17.0653 27.5916 17.0982 27.4158C17.1312 27.2399 17.1587 27.0641 17.1806 26.8883C17.2136 26.7016 17.2356 26.5532 17.2466 26.4433L19.2573 26.9213ZM24.7621 25.1578C25.1137 25.2017 25.4873 25.2347 25.8828 25.2567C26.2894 25.2677 26.6465 25.2732 26.9541 25.2732C27.6354 25.2732 28.3221 25.2347 29.0143 25.1578C29.7175 25.0809 30.3932 24.982 31.0415 24.8611C31.6898 24.7293 32.2776 24.5809 32.805 24.4161L32.8709 26.328C32.3985 26.4488 31.8326 26.5752 31.1734 26.7071C30.5251 26.8279 29.8384 26.9323 29.1132 27.0202C28.388 27.0971 27.6738 27.1356 26.9706 27.1356C26.641 27.1356 26.3059 27.1301 25.9652 27.1191C25.6246 27.1081 25.273 27.0916 24.9104 27.0696L24.7621 25.1578ZM31.1734 22.6856C31.1074 22.9603 31.0195 23.3174 30.9097 23.7569C30.7998 24.1964 30.6734 24.6579 30.5306 25.1413C30.3987 25.6248 30.2559 26.1027 30.1021 26.5752C29.8603 27.3663 29.5417 28.2069 29.1461 29.0969C28.7506 29.9869 28.3221 30.8549 27.8606 31.7009C27.3991 32.547 26.9321 33.2996 26.4597 33.9589L24.4654 32.937C24.839 32.4755 25.2071 31.9646 25.5697 31.4043C25.9323 30.8439 26.2729 30.267 26.5915 29.6737C26.9102 29.0804 27.1958 28.509 27.4486 27.9596C27.7123 27.3993 27.921 26.8938 28.0749 26.4433C28.2836 25.861 28.4649 25.2127 28.6187 24.4985C28.7836 23.7734 28.877 23.0921 28.8989 22.4548L31.1734 22.6856ZM35.03 27.8113C35.008 28.1629 34.9971 28.5145 34.9971 28.8661C35.008 29.2067 35.019 29.5583 35.03 29.9209C35.041 30.1736 35.052 30.4978 35.063 30.8933C35.085 31.2779 35.1069 31.6899 35.1289 32.1294C35.1509 32.558 35.1674 32.97 35.1783 33.3655C35.2003 33.7501 35.2113 34.0578 35.2113 34.2885C35.2113 34.7939 35.1069 35.2554 34.8982 35.6729C34.6894 36.0795 34.3543 36.4036 33.8928 36.6453C33.4423 36.8871 32.8215 37.0079 32.0304 37.0079C31.3492 37.0079 30.7339 36.9036 30.1845 36.6948C29.6351 36.497 29.1956 36.2003 28.866 35.8048C28.5363 35.3983 28.3715 34.8928 28.3715 34.2885C28.3715 33.7501 28.5144 33.2667 28.8 32.8381C29.0857 32.3986 29.4978 32.058 30.0361 31.8163C30.5855 31.5636 31.2448 31.4372 32.0139 31.4372C32.9808 31.4372 33.8708 31.5746 34.6839 31.8493C35.497 32.113 36.2277 32.4536 36.8759 32.8711C37.5242 33.2886 38.0791 33.7062 38.5406 34.1237L37.4363 35.8872C37.1396 35.6235 36.799 35.3268 36.4145 34.9972C36.0409 34.6676 35.6179 34.3599 35.1454 34.0742C34.6839 33.7886 34.1785 33.5523 33.6291 33.3655C33.0907 33.1788 32.5084 33.0854 31.8821 33.0854C31.4096 33.0854 31.0305 33.1788 30.7448 33.3655C30.4592 33.5523 30.3163 33.7941 30.3163 34.0907C30.3163 34.3984 30.4372 34.6456 30.6789 34.8324C30.9316 35.0192 31.2832 35.1126 31.7337 35.1126C32.1073 35.1126 32.404 35.0521 32.6237 34.9313C32.8435 34.7994 32.9973 34.6181 33.0852 34.3874C33.1731 34.1457 33.2171 33.8765 33.2171 33.5798C33.2171 33.3271 33.2061 32.97 33.1841 32.5085C33.1621 32.047 33.1347 31.5361 33.1017 30.9757C33.0797 30.4154 33.0577 29.855 33.0358 29.2946C33.0138 28.7343 32.9918 28.2398 32.9698 27.8113H35.03ZM37.8648 28.6848C37.5462 28.4211 37.1506 28.1409 36.6782 27.8443C36.2057 27.5476 35.7167 27.2674 35.2113 27.0037C34.7169 26.729 34.2829 26.5093 33.9093 26.3445L34.9641 24.7128C35.2608 24.8447 35.5959 25.0095 35.9695 25.2072C36.354 25.394 36.7386 25.5918 37.1232 25.8006C37.5187 26.0093 37.8813 26.2181 38.2109 26.4269C38.5515 26.6246 38.8262 26.8004 39.035 26.9543L37.8648 28.6848ZM47.6877 22.801C47.6218 23.0207 47.5559 23.2899 47.49 23.6085C47.424 23.9272 47.3746 24.1744 47.3416 24.3502C47.2647 24.7238 47.1658 25.1798 47.045 25.7182C46.9351 26.2566 46.8087 26.8279 46.6659 27.4322C46.534 28.0366 46.3967 28.6134 46.2539 29.1628C46.111 29.7451 45.9352 30.3769 45.7265 31.0581C45.5177 31.7284 45.2924 32.4151 45.0507 33.1183C44.82 33.8105 44.5837 34.4753 44.342 35.1126C44.1003 35.7389 43.8641 36.2992 43.6333 36.7937L41.3424 36.0191C41.5841 35.6015 41.8423 35.0961 42.117 34.5028C42.3917 33.8984 42.6554 33.2502 42.9081 32.558C43.1718 31.8657 43.4136 31.179 43.6333 30.4978C43.8531 29.8165 44.0399 29.1848 44.1937 28.6024C44.3036 28.2178 44.4079 27.8223 44.5068 27.4158C44.6057 27.0092 44.6936 26.6137 44.7705 26.2291C44.8474 25.8445 44.9134 25.4874 44.9683 25.1578C45.0342 24.8172 45.0837 24.5205 45.1166 24.2678C45.1496 23.9601 45.1716 23.6525 45.1826 23.3448C45.1936 23.0372 45.1881 22.79 45.1661 22.6032L47.6877 22.801ZM43.485 25.2567C44.1552 25.2567 44.8529 25.2237 45.5781 25.1578C46.3033 25.0919 47.034 24.9985 47.7701 24.8776C48.5063 24.7567 49.237 24.6139 49.9622 24.4491V26.5093C49.2809 26.6631 48.5558 26.795 47.7866 26.9048C47.0175 27.0147 46.2594 27.1026 45.5122 27.1685C44.765 27.2235 44.0783 27.2509 43.452 27.2509C43.0565 27.2509 42.6994 27.2454 42.3807 27.2345C42.0621 27.2125 41.7544 27.196 41.4578 27.185L41.4083 25.1248C41.8368 25.1688 42.2049 25.2017 42.5126 25.2237C42.8202 25.2457 43.1444 25.2567 43.485 25.2567ZM48.6601 27.7783C49.1216 27.7344 49.6325 27.6959 50.1929 27.663C50.7533 27.63 51.2972 27.6135 51.8246 27.6135C52.297 27.6135 52.775 27.6245 53.2585 27.6465C53.7529 27.6685 54.2418 27.7069 54.7253 27.7619L54.6759 29.7396C54.2693 29.6847 53.8188 29.6407 53.3244 29.6078C52.8409 29.5638 52.3465 29.5419 51.8411 29.5419C51.2807 29.5419 50.7368 29.5583 50.2094 29.5913C49.693 29.6133 49.1766 29.6572 48.6601 29.7231V27.7783ZM49.5501 31.9317C49.4842 32.1624 49.4293 32.4041 49.3853 32.6568C49.3414 32.8986 49.3194 33.1128 49.3194 33.2996C49.3194 33.4754 49.3579 33.6402 49.4348 33.7941C49.5117 33.9479 49.6325 34.0852 49.7974 34.2061C49.9622 34.316 50.1874 34.4039 50.4731 34.4698C50.7698 34.5357 51.1378 34.5687 51.5774 34.5687C52.1377 34.5687 52.6981 34.5412 53.2585 34.4863C53.8298 34.4204 54.4122 34.3325 55.0055 34.2226L54.9231 36.3322C54.4616 36.3871 53.9507 36.4366 53.3903 36.4805C52.8299 36.5355 52.2201 36.5629 51.5609 36.5629C50.1764 36.5629 49.1161 36.3377 48.38 35.8872C47.6548 35.4257 47.2922 34.7775 47.2922 33.9424C47.2922 33.5688 47.3251 33.1897 47.3911 32.8052C47.457 32.4206 47.5229 32.0635 47.5889 31.7339L49.5501 31.9317Z" fill="#FEFEFE"/>
</svg>
