<svg width="63" height="87" viewBox="0 0 63 87" fill="none" xmlns="http://www.w3.org/2000/svg">
<path d="M62.2432 31.1216C62.2432 50.5726 36.7408 77.3718 31.1216 86.4489C25.0702 76.9395 0 48.3096 0 31.1216C0 13.9336 13.9336 0 31.1216 0C48.3096 0 62.2432 13.9336 62.2432 31.1216Z" fill="#C2BDBD"/>
<path d="M8.46331 21.6833C8.86267 21.6833 9.37238 21.6833 9.99244 21.6833C10.6125 21.6728 11.2641 21.6517 11.9472 21.6202C12.6303 21.5782 13.2609 21.5151 13.8389 21.431C14.2383 21.3785 14.6271 21.3154 15.0055 21.2419C15.3943 21.1683 15.7621 21.0947 16.1089 21.0212C16.4663 20.9371 16.7868 20.8478 17.0706 20.7532C17.3648 20.6586 17.6118 20.5693 17.8115 20.4852L19.1041 22.2192C18.8309 22.2823 18.5944 22.3401 18.3948 22.3927C18.1951 22.4452 18.0269 22.4872 17.8903 22.5188C17.5645 22.6028 17.2124 22.6869 16.8341 22.771C16.4558 22.8446 16.0669 22.9129 15.6675 22.9759C15.2682 23.039 14.8636 23.102 14.4537 23.1651C13.8547 23.2492 13.2188 23.3122 12.5462 23.3543C11.8736 23.3963 11.222 23.4331 10.5915 23.4646C9.96091 23.4856 9.41442 23.5014 8.952 23.5119L8.46331 21.6833ZM9.14117 32.5448C10.066 32.1244 10.8227 31.6147 11.4112 31.0157C12.0103 30.4061 12.4517 29.7072 12.7354 28.919C13.0297 28.1203 13.1768 27.227 13.1768 26.2391C13.1768 26.2391 13.1768 26.1235 13.1768 25.8923C13.1768 25.6506 13.1768 25.2933 13.1768 24.8203C13.1768 24.3369 13.1768 23.7274 13.1768 22.9917L15.2419 22.7552C15.2419 23.0285 15.2419 23.3227 15.2419 23.638C15.2419 23.9428 15.2419 24.2476 15.2419 24.5523C15.2419 24.8571 15.2419 25.1356 15.2419 25.3878C15.2419 25.6296 15.2419 25.8292 15.2419 25.9869C15.2419 26.134 15.2419 26.2076 15.2419 26.2076C15.2419 27.2585 15.1105 28.2569 14.8478 29.2028C14.5956 30.1486 14.17 31.0209 13.5709 31.8196C12.9719 32.6078 12.1626 33.3067 11.1432 33.9163L9.14117 32.5448ZM7.281 25.4509C7.5017 25.4719 7.73816 25.4929 7.99039 25.514C8.24261 25.535 8.48959 25.5455 8.7313 25.5455C8.87844 25.5455 9.15694 25.5455 9.56681 25.5455C9.97668 25.5455 10.4706 25.5455 11.0486 25.5455C11.6372 25.5455 12.2677 25.5455 12.9403 25.5455C13.613 25.5455 14.2856 25.5455 14.9582 25.5455C15.6308 25.5455 16.2613 25.5455 16.8499 25.5455C17.4384 25.5455 17.9428 25.5455 18.3632 25.5455C18.7836 25.5455 19.0674 25.5455 19.2145 25.5455C19.3301 25.5455 19.4772 25.5402 19.6559 25.5297C19.8346 25.5192 20.0132 25.5087 20.1919 25.4982C20.381 25.4772 20.5334 25.4614 20.649 25.4509V27.4845C20.4388 27.4635 20.2076 27.4477 19.9554 27.4372C19.7137 27.4267 19.4825 27.4214 19.2618 27.4214C19.1147 27.4214 18.8309 27.4214 18.4105 27.4214C18.0007 27.4214 17.4962 27.4214 16.8972 27.4214C16.3086 27.4214 15.6728 27.4214 14.9897 27.4214C14.3171 27.4214 13.6392 27.4214 12.9561 27.4214C12.2835 27.4214 11.6529 27.4214 11.0644 27.4214C10.4759 27.4214 9.97668 27.4214 9.56681 27.4214C9.15694 27.4214 8.88895 27.4214 8.76283 27.4214C8.52112 27.4214 8.26363 27.4267 7.99039 27.4372C7.71714 27.4477 7.48068 27.4635 7.281 27.4845V25.4509ZM23.2659 25.7031C23.4551 25.7136 23.6968 25.7294 23.991 25.7504C24.2853 25.7609 24.5901 25.7714 24.9054 25.782C25.2312 25.7925 25.5307 25.7977 25.8039 25.7977C26.0667 25.7977 26.3925 25.7977 26.7813 25.7977C27.1702 25.7977 27.5905 25.7977 28.0424 25.7977C28.5049 25.7977 28.9778 25.7977 29.4612 25.7977C29.9552 25.7977 30.4439 25.7977 30.9273 25.7977C31.4107 25.7977 31.8679 25.7977 32.2988 25.7977C32.7297 25.7977 33.1133 25.7977 33.4496 25.7977C33.7964 25.7977 34.0696 25.7977 34.2693 25.7977C34.6371 25.7977 34.9839 25.7872 35.3097 25.7662C35.6355 25.7347 35.9035 25.7136 36.1137 25.7031V28.1781C35.935 28.1676 35.6671 28.1518 35.3097 28.1308C34.9524 28.1098 34.6056 28.0993 34.2693 28.0993C34.0696 28.0993 33.7964 28.0993 33.4496 28.0993C33.1027 28.0993 32.7139 28.0993 32.283 28.0993C31.8521 28.0993 31.395 28.0993 30.9115 28.0993C30.4386 28.0993 29.9552 28.0993 29.4612 28.0993C28.9673 28.0993 28.4891 28.0993 28.0267 28.0993C27.5748 28.0993 27.1544 28.0993 26.7655 28.0993C26.3872 28.0993 26.0667 28.0993 25.8039 28.0993C25.352 28.0993 24.8896 28.1098 24.4167 28.1308C23.9438 28.1413 23.5602 28.1571 23.2659 28.1781V25.7031ZM45.8517 21.1158C45.7466 21.347 45.6362 21.6097 45.5206 21.904C45.405 22.1877 45.2894 22.5083 45.1738 22.8656C45.0792 23.1598 44.9584 23.5382 44.8112 24.0006C44.6641 24.4525 44.5012 24.9517 44.3225 25.4982C44.1439 26.0342 43.9547 26.5912 43.755 27.1692C43.5659 27.7367 43.3819 28.2885 43.2033 28.8244C43.0246 29.3604 42.8565 29.8491 42.6988 30.2905C42.5412 30.7214 42.4046 31.0735 42.289 31.3467L39.9559 31.4255C40.103 31.0892 40.2659 30.6794 40.4446 30.1959C40.6232 29.7125 40.8124 29.187 41.0121 28.6195C41.2117 28.0415 41.4062 27.453 41.5953 26.8539C41.795 26.2549 41.9789 25.6769 42.1471 25.1199C42.3257 24.5629 42.4834 24.0479 42.62 23.575C42.7671 23.102 42.8827 22.7184 42.9668 22.4242C43.0719 22.0143 43.1507 21.678 43.2033 21.4153C43.2663 21.142 43.3136 20.8688 43.3452 20.5955L45.8517 21.1158ZM48.6735 26.2076C48.9572 26.628 49.262 27.1219 49.5878 27.6894C49.9136 28.2569 50.2341 28.8507 50.5494 29.4708C50.8752 30.0803 51.1747 30.6689 51.448 31.2364C51.7212 31.8039 51.9472 32.3136 52.1258 32.7655L49.9977 33.7113C49.819 33.2279 49.5983 32.6814 49.3356 32.0719C49.0833 31.4623 48.8048 30.8423 48.5001 30.2117C48.2058 29.5811 47.901 28.9873 47.5857 28.4303C47.281 27.8628 46.9867 27.3899 46.7029 27.0116L48.6735 26.2076ZM39.814 30.7319C40.1713 30.7109 40.6022 30.6846 41.1066 30.6531C41.6216 30.6111 42.1734 30.5638 42.7619 30.5112C43.3504 30.4482 43.9495 30.3851 44.559 30.322C45.1791 30.259 45.7834 30.1959 46.3719 30.1329C46.9709 30.0593 47.5279 29.991 48.0429 29.9279C48.5579 29.8649 48.994 29.8071 49.3513 29.7545L49.8242 31.7723C49.4354 31.8249 48.9677 31.8827 48.4212 31.9458C47.8853 32.0088 47.3072 32.0771 46.6872 32.1507C46.0671 32.2137 45.4365 32.2821 44.7955 32.3556C44.1544 32.4292 43.5291 32.4975 42.9195 32.5606C42.31 32.6236 41.7477 32.6814 41.2328 32.734C40.7178 32.776 40.2817 32.818 39.9243 32.8601C39.7247 32.8811 39.4882 32.9126 39.2149 32.9547C38.9522 32.9862 38.6947 33.0177 38.4425 33.0492L38.0799 30.7477C38.3427 30.7477 38.6317 30.7477 38.947 30.7477C39.2727 30.7477 39.5618 30.7424 39.814 30.7319Z" fill="#0E1336"/>
</svg>
