<svg width="34" height="34" viewBox="0 0 34 34" fill="none" xmlns="http://www.w3.org/2000/svg">
<path d="M30.7855 3.21447C30.0881 2.5172 29.1423 2.12549 28.1561 2.12549C27.17 2.12549 26.2242 2.5172 25.5268 3.21447L23.8877 4.85355L29.1464 10.1122L30.7855 8.47313C31.4827 7.77575 31.8744 6.82996 31.8744 5.8438C31.8744 4.85763 31.4827 3.91185 30.7855 3.21447ZM27.6433 11.6153L22.3846 6.35663L5.17212 23.5691C4.29783 24.443 3.65512 25.521 3.30212 26.7056L2.16879 30.5094C2.11407 30.6929 2.10999 30.8879 2.15698 31.0736C2.20397 31.2592 2.30027 31.4288 2.43571 31.5642C2.57115 31.6996 2.74068 31.796 2.92636 31.8429C3.11205 31.8899 3.30698 31.8858 3.49054 31.8311L7.29429 30.6978C8.47894 30.3448 9.55693 29.7021 10.4308 28.8278L27.6433 11.6153Z" fill="#6A6565"/>
</svg>
