<svg width="34" height="34" viewBox="0 0 34 34" fill="none" xmlns="http://www.w3.org/2000/svg">
<path fill-rule="evenodd" clip-rule="evenodd" d="M23.375 6.34376V6.66534C25.2152 6.83362 27.048 7.0756 28.8688 7.39068C29.0063 7.41449 29.1378 7.46515 29.2557 7.53976C29.3736 7.61437 29.4756 7.71148 29.556 7.82553C29.6364 7.93959 29.6935 8.06835 29.7241 8.20449C29.7547 8.34062 29.7582 8.48144 29.7344 8.61893C29.7106 8.75641 29.66 8.88786 29.5853 9.00576C29.5107 9.12367 29.4136 9.22572 29.2996 9.3061C29.1855 9.38647 29.0567 9.4436 28.9206 9.47421C28.7845 9.50482 28.6437 9.50832 28.5062 9.48451L28.2101 9.43493L26.7863 27.9508C26.7043 29.0183 26.2222 30.0156 25.4366 30.7431C24.6511 31.4707 23.6198 31.8749 22.5491 31.8749H11.4523C10.3816 31.8749 9.35037 31.4707 8.56479 30.7431C7.77921 30.0156 7.29718 29.0183 7.21509 27.9508L5.78993 9.43493L5.49384 9.48451C5.35636 9.50832 5.21553 9.50482 5.0794 9.47421C4.94327 9.4436 4.8145 9.38647 4.70045 9.3061C4.47011 9.14377 4.31369 8.89659 4.26559 8.61893C4.2175 8.34127 4.28168 8.05588 4.44401 7.82553C4.60633 7.59519 4.85352 7.43877 5.13118 7.39068C6.95197 7.07522 8.78473 6.83325 10.625 6.66534V6.34376C10.625 4.12809 12.3434 2.23543 14.6143 2.16318C16.2049 2.11227 17.7966 2.11227 19.3871 2.16318C21.658 2.23543 23.375 4.12809 23.375 6.34376ZM14.6823 4.28676C16.2275 4.23734 17.7739 4.23734 19.3191 4.28676C20.3858 4.32076 21.25 5.21893 21.25 6.34376V6.50384C18.4193 6.33193 15.5807 6.33193 12.75 6.50384V6.34376C12.75 5.21893 13.6128 4.32076 14.6823 4.28676ZM14.1794 12.7088C14.174 12.5693 14.1412 12.4322 14.0828 12.3054C14.0244 12.1785 13.9417 12.0644 13.8392 11.9696C13.7367 11.8747 13.6165 11.801 13.4856 11.7526C13.3546 11.7042 13.2154 11.682 13.0758 11.6874C12.9363 11.6928 12.7992 11.7256 12.6724 11.784C12.5455 11.8424 12.4314 11.9252 12.3366 12.0277C12.2417 12.1302 12.168 12.2503 12.1196 12.3813C12.0712 12.5123 12.049 12.6515 12.0544 12.791L12.546 25.541C12.5569 25.8226 12.6792 26.0884 12.8861 26.2798C12.9885 26.3746 13.1085 26.4482 13.2394 26.4966C13.3703 26.545 13.5094 26.5671 13.6489 26.5617C13.7883 26.5563 13.9253 26.5235 14.0521 26.4652C14.1788 26.4068 14.2929 26.3241 14.3877 26.2217C14.4824 26.1193 14.5561 25.9992 14.6045 25.8683C14.6529 25.7374 14.675 25.5983 14.6696 25.4588L14.1794 12.7088ZM21.9428 12.791C21.9531 12.6488 21.9348 12.506 21.8888 12.371C21.8428 12.236 21.7702 12.1117 21.6751 12.0054C21.5801 11.8991 21.4646 11.813 21.3356 11.7523C21.2066 11.6916 21.0667 11.6574 20.9242 11.6519C20.7817 11.6464 20.6396 11.6696 20.5063 11.7202C20.3729 11.7708 20.2512 11.8476 20.1482 11.9463C20.0452 12.0449 19.9631 12.1632 19.9068 12.2942C19.8506 12.4253 19.8212 12.5663 19.8206 12.7088L19.329 25.4588C19.3181 25.7406 19.4196 26.0152 19.6112 26.2222C19.8027 26.4291 20.0686 26.5515 20.3504 26.5624C20.6322 26.5733 20.9068 26.4718 21.1138 26.2803C21.3207 26.0887 21.4431 25.8228 21.454 25.541L21.9428 12.791Z" fill="#6A6565"/>
</svg>
