<svg width="770" height="598" viewBox="0 0 770 598" fill="none" xmlns="http://www.w3.org/2000/svg">
<rect x="1.17468" y="30.5416" width="767.651" height="565.606" rx="22.3188" stroke="#999797" stroke-width="2.34935"/>
<rect x="298.955" width="172.09" height="59.0485" rx="2.34935" fill="white"/>
<path d="M337.463 42.9752C335.358 42.9752 333.34 42.6996 331.411 42.1483C329.481 41.5719 327.928 40.8326 326.75 39.9305L328.817 35.3446C329.945 36.1465 331.273 36.8105 332.802 37.3368C334.355 37.838 335.922 38.0886 337.5 38.0886C338.703 38.0886 339.668 37.9758 340.395 37.7503C341.147 37.4997 341.698 37.1614 342.049 36.7354C342.4 36.3094 342.575 35.8207 342.575 35.2694C342.575 34.5677 342.299 34.0164 341.748 33.6154C341.197 33.1894 340.47 32.8511 339.568 32.6005C338.666 32.3249 337.663 32.0743 336.561 31.8487C335.483 31.5981 334.393 31.2974 333.29 30.9466C332.213 30.5957 331.223 30.1447 330.321 29.5933C329.419 29.042 328.679 28.3153 328.103 27.4131C327.552 26.511 327.276 25.3582 327.276 23.9549C327.276 22.4513 327.677 21.0856 328.479 19.8576C329.306 18.6046 330.534 17.6148 332.163 16.888C333.817 16.1363 335.884 15.7604 338.365 15.7604C340.019 15.7604 341.648 15.9608 343.252 16.3618C344.855 16.7377 346.271 17.3141 347.499 18.0909L345.62 22.7144C344.392 22.0128 343.164 21.499 341.936 21.1733C340.708 20.8224 339.505 20.647 338.327 20.647C337.15 20.647 336.185 20.7848 335.433 21.0605C334.681 21.3362 334.142 21.6995 333.817 22.1506C333.491 22.5766 333.328 23.0778 333.328 23.6542C333.328 24.3308 333.604 24.8821 334.155 25.3081C334.706 25.7091 335.433 26.0349 336.335 26.2855C337.237 26.536 338.227 26.7866 339.305 27.0372C340.407 27.2878 341.497 27.576 342.575 27.9018C343.678 28.2276 344.68 28.6661 345.582 29.2174C346.484 29.7688 347.211 30.4955 347.762 31.3976C348.339 32.2998 348.627 33.44 348.627 34.8183C348.627 36.2968 348.213 37.65 347.386 38.878C346.559 40.1059 345.319 41.0958 343.665 41.8476C342.036 42.5993 339.969 42.9752 337.463 42.9752ZM364.328 42.8249C362.624 42.8249 361.133 42.449 359.855 41.6972C358.577 40.9454 357.574 39.8052 356.848 38.2765C356.146 36.7228 355.795 34.7682 355.795 32.4126C355.795 30.0319 356.133 28.0772 356.81 26.5486C357.487 25.0199 358.464 23.8797 359.742 23.1279C361.02 22.3761 362.549 22.0002 364.328 22.0002C366.232 22.0002 367.937 22.4388 369.44 23.3159C370.969 24.1679 372.172 25.3708 373.049 26.9245C373.951 28.4782 374.402 30.3075 374.402 32.4126C374.402 34.5426 373.951 36.3845 373.049 37.9382C372.172 39.4919 370.969 40.6948 369.44 41.5468C367.937 42.3989 366.232 42.8249 364.328 42.8249ZM352.374 49.8166V22.3009H357.975V26.4358L357.862 32.4501L358.238 38.4269V49.8166H352.374ZM363.313 38.0134C364.29 38.0134 365.155 37.7879 365.907 37.3368C366.684 36.8857 367.297 36.2467 367.749 35.4197C368.225 34.5677 368.463 33.5653 368.463 32.4126C368.463 31.2348 368.225 30.2324 367.749 29.4054C367.297 28.5784 366.684 27.9394 365.907 27.4883C365.155 27.0372 364.29 26.8117 363.313 26.8117C362.336 26.8117 361.459 27.0372 360.682 27.4883C359.905 27.9394 359.291 28.5784 358.84 29.4054C358.389 30.2324 358.163 31.2348 358.163 32.4126C358.163 33.5653 358.389 34.5677 358.84 35.4197C359.291 36.2467 359.905 36.8857 360.682 37.3368C361.459 37.7879 362.336 38.0134 363.313 38.0134ZM390.402 42.5242V38.5773L390.026 37.7127V30.6458C390.026 29.3929 389.637 28.4155 388.86 27.7139C388.109 27.0122 386.943 26.6613 385.365 26.6613C384.287 26.6613 383.222 26.8368 382.169 27.1876C381.142 27.5134 380.265 27.9645 379.538 28.5408L377.433 24.4436C378.536 23.6667 379.864 23.0653 381.418 22.6393C382.971 22.2132 384.55 22.0002 386.154 22.0002C389.236 22.0002 391.63 22.727 393.334 24.1804C395.038 25.6339 395.89 27.9018 395.89 30.9842V42.5242H390.402ZM384.237 42.8249C382.658 42.8249 381.305 42.5618 380.177 42.0355C379.05 41.4842 378.185 40.7449 377.584 39.8177C376.982 38.8905 376.681 37.8505 376.681 36.6978C376.681 35.4949 376.97 34.4424 377.546 33.5402C378.147 32.6381 379.087 31.9364 380.365 31.4352C381.643 30.909 383.31 30.6458 385.365 30.6458H390.74V34.0665H386.004C384.625 34.0665 383.673 34.292 383.147 34.7431C382.646 35.1942 382.395 35.758 382.395 36.4347C382.395 37.1864 382.683 37.7879 383.26 38.239C383.861 38.665 384.675 38.878 385.703 38.878C386.68 38.878 387.557 38.6524 388.334 38.2014C389.111 37.7252 389.675 37.0361 390.026 36.1339L390.928 38.8404C390.502 40.1435 389.725 41.1334 388.597 41.81C387.47 42.4866 386.016 42.8249 384.237 42.8249ZM411.117 42.8249C408.937 42.8249 406.995 42.3863 405.291 41.5092C403.587 40.6071 402.246 39.3666 401.269 37.7879C400.316 36.2091 399.84 34.4173 399.84 32.4126C399.84 30.3827 400.316 28.5909 401.269 27.0372C402.246 25.4585 403.587 24.2306 405.291 23.3535C406.995 22.4513 408.937 22.0002 411.117 22.0002C413.247 22.0002 415.102 22.4513 416.68 23.3535C418.259 24.2306 419.424 25.4961 420.176 27.15L415.628 29.5933C415.102 28.6411 414.437 27.9394 413.636 27.4883C412.859 27.0372 412.007 26.8117 411.079 26.8117C410.077 26.8117 409.175 27.0372 408.373 27.4883C407.571 27.9394 406.932 28.5784 406.456 29.4054C406.005 30.2324 405.779 31.2348 405.779 32.4126C405.779 33.5904 406.005 34.5928 406.456 35.4197C406.932 36.2467 407.571 36.8857 408.373 37.3368C409.175 37.7879 410.077 38.0134 411.079 38.0134C412.007 38.0134 412.859 37.8004 413.636 37.3744C414.437 36.9233 415.102 36.2091 415.628 35.2318L420.176 37.7127C419.424 39.3416 418.259 40.6071 416.68 41.5092C415.102 42.3863 413.247 42.8249 411.117 42.8249ZM433.332 42.8249C431.026 42.8249 428.997 42.3738 427.242 41.4717C425.513 40.5695 424.173 39.3416 423.22 37.7879C422.268 36.2091 421.792 34.4173 421.792 32.4126C421.792 30.3827 422.255 28.5909 423.183 27.0372C424.135 25.4585 425.426 24.2306 427.054 23.3535C428.683 22.4513 430.525 22.0002 432.58 22.0002C434.56 22.0002 436.339 22.4262 437.918 23.2783C439.522 24.1053 440.787 25.3081 441.714 26.8869C442.642 28.4406 443.105 30.3075 443.105 32.4877C443.105 32.7133 443.093 32.9764 443.068 33.2771C443.043 33.5528 443.017 33.8159 442.992 34.0665H426.566V30.6458H439.91L437.655 31.6608C437.655 30.6083 437.442 29.6936 437.016 28.9167C436.59 28.1399 436.001 27.5384 435.249 27.1124C434.497 26.6613 433.62 26.4358 432.618 26.4358C431.615 26.4358 430.726 26.6613 429.949 27.1124C429.197 27.5384 428.608 28.1524 428.182 28.9543C427.756 29.7312 427.543 30.6584 427.543 31.7359V32.6381C427.543 33.7407 427.781 34.7181 428.257 35.5701C428.758 36.3971 429.448 37.0361 430.325 37.4872C431.227 37.9132 432.279 38.1262 433.482 38.1262C434.56 38.1262 435.5 37.9633 436.301 37.6375C437.128 37.3117 437.88 36.8231 438.557 36.1715L441.677 39.5546C440.75 40.6071 439.584 41.4215 438.181 41.9979C436.778 42.5492 435.161 42.8249 433.332 42.8249Z" fill="#6A6565"/>
<ellipse cx="149.533" cy="370.421" rx="20.3052" ry="20.2596" fill="#E0D9D9"/>
<path d="M140.286 374.642C144.814 381.618 154.528 381.939 159.015 374.852" stroke="#6A6565" stroke-width="2.02919" stroke-linecap="round"/>
<ellipse cx="2.61638" cy="2.72917" rx="2.61638" ry="2.72917" transform="matrix(0.999937 0.0111976 -0.011248 0.999937 139.442 363.668)" fill="#6A6565"/>
<ellipse cx="2.61638" cy="2.72917" rx="2.61638" ry="2.72917" transform="matrix(0.999937 0.0111976 -0.011248 0.999937 154.671 363.668)" fill="#6A6565"/>
<path d="M119.075 413.505C119.075 402.298 128.16 393.213 139.367 393.213H159.699C170.906 393.213 179.991 402.298 179.991 413.505V424.446H119.075V413.505Z" fill="#E0D9D9"/>
<path d="M112.458 422.259V407.108H115.964V419.402H123.562V422.259H112.458ZM130.999 422.432C129.671 422.432 128.502 422.172 127.492 421.653C126.496 421.133 125.724 420.426 125.176 419.532C124.628 418.622 124.354 417.591 124.354 416.436C124.354 415.268 124.621 414.236 125.154 413.341C125.703 412.432 126.446 411.725 127.384 411.22C128.322 410.701 129.382 410.441 130.566 410.441C131.706 410.441 132.73 410.686 133.639 411.177C134.563 411.653 135.291 412.346 135.825 413.255C136.359 414.149 136.626 415.224 136.626 416.48C136.626 416.61 136.619 416.761 136.604 416.934C136.59 417.093 136.576 417.244 136.561 417.389H127.102V415.419H134.786L133.488 416.003C133.488 415.397 133.365 414.871 133.12 414.423C132.874 413.976 132.535 413.63 132.102 413.384C131.669 413.125 131.164 412.995 130.587 412.995C130.01 412.995 129.498 413.125 129.05 413.384C128.618 413.63 128.278 413.983 128.033 414.445C127.788 414.892 127.665 415.426 127.665 416.047V416.566C127.665 417.201 127.802 417.764 128.076 418.255C128.365 418.731 128.762 419.099 129.267 419.358C129.786 419.604 130.392 419.726 131.085 419.726C131.706 419.726 132.247 419.633 132.708 419.445C133.185 419.257 133.618 418.976 134.007 418.601L135.804 420.549C135.27 421.155 134.599 421.624 133.791 421.956C132.983 422.273 132.052 422.432 130.999 422.432ZM145.7 422.259V419.986L145.483 419.488V415.419C145.483 414.698 145.26 414.135 144.812 413.731C144.379 413.327 143.708 413.125 142.799 413.125C142.179 413.125 141.566 413.226 140.96 413.428C140.368 413.615 139.863 413.875 139.444 414.207L138.232 411.848C138.867 411.4 139.632 411.054 140.527 410.809C141.421 410.563 142.33 410.441 143.254 410.441C145.029 410.441 146.407 410.859 147.388 411.696C148.369 412.533 148.86 413.839 148.86 415.614V422.259H145.7ZM142.15 422.432C141.241 422.432 140.462 422.28 139.812 421.977C139.163 421.66 138.665 421.234 138.319 420.7C137.973 420.166 137.799 419.568 137.799 418.904C137.799 418.211 137.965 417.605 138.297 417.086C138.644 416.566 139.185 416.162 139.921 415.874C140.657 415.571 141.616 415.419 142.799 415.419H145.895V417.389H143.167C142.374 417.389 141.825 417.519 141.522 417.778C141.234 418.038 141.089 418.363 141.089 418.752C141.089 419.185 141.255 419.532 141.587 419.791C141.934 420.037 142.403 420.159 142.994 420.159C143.557 420.159 144.062 420.029 144.509 419.77C144.957 419.495 145.281 419.099 145.483 418.579L146.003 420.138C145.758 420.888 145.31 421.458 144.661 421.848C144.012 422.237 143.175 422.432 142.15 422.432ZM157 422.432C155.904 422.432 154.915 422.187 154.035 421.696C153.155 421.191 152.455 420.491 151.935 419.596C151.43 418.702 151.178 417.648 151.178 416.436C151.178 415.21 151.43 414.149 151.935 413.255C152.455 412.36 153.155 411.667 154.035 411.177C154.915 410.686 155.904 410.441 157 410.441C157.982 410.441 158.84 410.657 159.576 411.09C160.312 411.523 160.882 412.18 161.286 413.06C161.69 413.94 161.892 415.066 161.892 416.436C161.892 417.793 161.697 418.918 161.308 419.813C160.918 420.693 160.355 421.35 159.619 421.783C158.898 422.215 158.025 422.432 157 422.432ZM157.585 419.661C158.133 419.661 158.631 419.532 159.078 419.272C159.526 419.012 159.879 418.644 160.139 418.168C160.413 417.677 160.55 417.1 160.55 416.436C160.55 415.758 160.413 415.181 160.139 414.705C159.879 414.229 159.526 413.861 159.078 413.601C158.631 413.341 158.133 413.211 157.585 413.211C157.022 413.211 156.517 413.341 156.07 413.601C155.622 413.861 155.262 414.229 154.987 414.705C154.728 415.181 154.598 415.758 154.598 416.436C154.598 417.1 154.728 417.677 154.987 418.168C155.262 418.644 155.622 419.012 156.07 419.272C156.517 419.532 157.022 419.661 157.585 419.661ZM160.637 422.259V419.878L160.702 416.415L160.485 412.973V406.198H163.862V422.259H160.637ZM172.766 422.432C171.438 422.432 170.27 422.172 169.259 421.653C168.264 421.133 167.492 420.426 166.944 419.532C166.395 418.622 166.121 417.591 166.121 416.436C166.121 415.268 166.388 414.236 166.922 413.341C167.47 412.432 168.213 411.725 169.151 411.22C170.089 410.701 171.15 410.441 172.333 410.441C173.473 410.441 174.497 410.686 175.407 411.177C176.33 411.653 177.059 412.346 177.593 413.255C178.127 414.149 178.394 415.224 178.394 416.48C178.394 416.61 178.386 416.761 178.372 416.934C178.357 417.093 178.343 417.244 178.329 417.389H168.87V415.419H176.554L175.255 416.003C175.255 415.397 175.132 414.871 174.887 414.423C174.642 413.976 174.303 413.63 173.87 413.384C173.437 413.125 172.932 412.995 172.355 412.995C171.777 412.995 171.265 413.125 170.818 413.384C170.385 413.63 170.046 413.983 169.801 414.445C169.555 414.892 169.433 415.426 169.433 416.047V416.566C169.433 417.201 169.57 417.764 169.844 418.255C170.132 418.731 170.529 419.099 171.034 419.358C171.554 419.604 172.16 419.726 172.853 419.726C173.473 419.726 174.014 419.633 174.476 419.445C174.952 419.257 175.385 418.976 175.775 418.601L177.571 420.549C177.037 421.155 176.366 421.624 175.558 421.956C174.75 422.273 173.819 422.432 172.766 422.432ZM180.642 422.259V410.614H183.867V413.904L183.412 412.952C183.758 412.129 184.314 411.509 185.079 411.09C185.843 410.657 186.774 410.441 187.871 410.441V413.558C187.727 413.543 187.597 413.536 187.481 413.536C187.366 413.522 187.243 413.514 187.113 413.514C186.19 413.514 185.439 413.781 184.862 414.315C184.299 414.835 184.018 415.65 184.018 416.761V422.259H180.642Z" fill="#6A6565"/>
<ellipse cx="149.57" cy="465.64" rx="20.3052" ry="20.2596" fill="#E0D9D9"/>
<path d="M140.323 469.861C144.851 476.837 154.565 477.158 159.052 470.071" stroke="#6A6565" stroke-width="2.02919" stroke-linecap="round"/>
<ellipse cx="2.61638" cy="2.72917" rx="2.61638" ry="2.72917" transform="matrix(0.999937 0.0111976 -0.011248 0.999937 139.478 458.887)" fill="#6A6565"/>
<ellipse cx="2.61638" cy="2.72917" rx="2.61638" ry="2.72917" transform="matrix(0.999937 0.0111976 -0.011248 0.999937 154.707 458.887)" fill="#6A6565"/>
<path d="M119.112 508.724C119.112 497.517 128.197 488.432 139.404 488.432H159.736C170.943 488.432 180.028 497.517 180.028 508.724V519.666H119.112V508.724Z" fill="#E0D9D9"/>
<path d="M108.914 465.64C108.914 476.83 99.8228 485.9 88.6085 485.9C77.3943 485.9 68.3033 476.83 68.3033 465.64C68.3033 454.451 77.3943 445.381 88.6085 445.381C99.8228 445.381 108.914 454.451 108.914 465.64Z" fill="#E0D9D9"/>
<path d="M79.3613 469.861C83.8896 476.837 93.6035 477.158 98.0907 470.071" stroke="#6A6565" stroke-width="2.02919" stroke-linecap="round"/>
<ellipse cx="2.61638" cy="2.72917" rx="2.61638" ry="2.72917" transform="matrix(0.999937 0.0111976 -0.011248 0.999937 78.5172 458.887)" fill="#6A6565"/>
<ellipse cx="2.61638" cy="2.72917" rx="2.61638" ry="2.72917" transform="matrix(0.999937 0.0111976 -0.011248 0.999937 93.7462 458.887)" fill="#6A6565"/>
<path d="M58.1506 508.724C58.1506 497.517 67.2356 488.432 78.4425 488.432H98.7743C109.981 488.432 119.066 497.517 119.066 508.724V519.666H58.1506V508.724Z" fill="#E0D9D9"/>
<ellipse cx="210.359" cy="465.64" rx="20.3052" ry="20.2596" fill="#E0D9D9"/>
<path d="M201.112 469.861C205.641 476.837 215.354 477.158 219.842 470.071" stroke="#6A6565" stroke-width="2.02919" stroke-linecap="round"/>
<ellipse cx="2.61638" cy="2.72917" rx="2.61638" ry="2.72917" transform="matrix(0.999937 0.0111976 -0.011248 0.999937 200.268 458.887)" fill="#6A6565"/>
<ellipse cx="2.61638" cy="2.72917" rx="2.61638" ry="2.72917" transform="matrix(0.999937 0.0111976 -0.011248 0.999937 215.497 458.887)" fill="#6A6565"/>
<path d="M179.902 508.724C179.902 497.517 188.987 488.432 200.194 488.432H220.526C231.732 488.432 240.817 497.517 240.817 508.724V519.666H179.902V508.724Z" fill="#E0D9D9"/>
<path d="M104.447 516.162V503.005H106.965L112.566 512.29H111.232L116.739 503.005H119.238L119.276 516.162H116.419L116.4 507.384H116.926L112.528 514.771H111.156L106.664 507.384H107.304V516.162H104.447ZM127.209 516.312C126.056 516.312 125.041 516.086 124.164 515.635C123.299 515.184 122.629 514.57 122.153 513.793C121.677 513.004 121.439 512.108 121.439 511.106C121.439 510.091 121.67 509.195 122.134 508.418C122.61 507.629 123.256 507.015 124.07 506.576C124.884 506.125 125.805 505.9 126.833 505.9C127.823 505.9 128.712 506.113 129.502 506.539C130.304 506.952 130.936 507.554 131.4 508.343C131.864 509.12 132.095 510.053 132.095 511.143C132.095 511.256 132.089 511.388 132.077 511.538C132.064 511.676 132.051 511.807 132.039 511.933H123.826V510.222H130.498L129.37 510.73C129.37 510.204 129.264 509.746 129.051 509.358C128.838 508.969 128.543 508.669 128.167 508.456C127.791 508.23 127.353 508.117 126.852 508.117C126.35 508.117 125.906 508.23 125.517 508.456C125.141 508.669 124.847 508.976 124.634 509.377C124.421 509.765 124.314 510.229 124.314 510.768V511.219C124.314 511.77 124.433 512.259 124.671 512.685C124.922 513.098 125.267 513.418 125.705 513.643C126.156 513.856 126.682 513.963 127.284 513.963C127.823 513.963 128.293 513.881 128.693 513.718C129.107 513.555 129.483 513.311 129.821 512.985L131.381 514.677C130.918 515.203 130.335 515.61 129.633 515.898C128.932 516.174 128.123 516.312 127.209 516.312ZM146.997 505.9C147.799 505.9 148.507 506.063 149.121 506.388C149.747 506.702 150.236 507.19 150.587 507.854C150.95 508.506 151.132 509.345 151.132 510.373V516.162H148.2V510.824C148.2 510.009 148.031 509.408 147.692 509.02C147.354 508.631 146.878 508.437 146.264 508.437C145.838 508.437 145.456 508.537 145.118 508.738C144.779 508.926 144.516 509.214 144.328 509.602C144.14 509.991 144.046 510.486 144.046 511.087V516.162H141.114V510.824C141.114 510.009 140.945 509.408 140.607 509.02C140.281 508.631 139.811 508.437 139.197 508.437C138.771 508.437 138.389 508.537 138.051 508.738C137.712 508.926 137.449 509.214 137.261 509.602C137.073 509.991 136.979 510.486 136.979 511.087V516.162H134.047V506.05H136.848V508.813L136.322 508.005C136.672 507.316 137.167 506.796 137.806 506.445C138.458 506.081 139.197 505.9 140.024 505.9C140.951 505.9 141.759 506.138 142.449 506.614C143.15 507.077 143.614 507.792 143.839 508.756L142.806 508.475C143.144 507.685 143.683 507.059 144.422 506.595C145.174 506.131 146.032 505.9 146.997 505.9ZM159.737 516.312C158.847 516.312 158.083 516.124 157.444 515.748C156.805 515.372 156.316 514.802 155.978 514.038C155.639 513.261 155.47 512.284 155.47 511.106C155.47 509.915 155.646 508.938 155.996 508.174C156.36 507.41 156.861 506.839 157.5 506.463C158.139 506.088 158.885 505.9 159.737 505.9C160.689 505.9 161.541 506.113 162.293 506.539C163.057 506.965 163.658 507.566 164.097 508.343C164.548 509.12 164.774 510.041 164.774 511.106C164.774 512.158 164.548 513.073 164.097 513.85C163.658 514.627 163.057 515.234 162.293 515.673C161.541 516.099 160.689 516.312 159.737 516.312ZM153.76 516.162V502.216H156.692V508.099L156.504 511.087L156.56 514.094V516.162H153.76ZM159.229 513.906C159.718 513.906 160.15 513.793 160.526 513.568C160.914 513.342 161.221 513.023 161.447 512.609C161.685 512.183 161.804 511.682 161.804 511.106C161.804 510.517 161.685 510.016 161.447 509.602C161.221 509.189 160.914 508.869 160.526 508.644C160.15 508.418 159.718 508.305 159.229 508.305C158.741 508.305 158.302 508.418 157.914 508.644C157.525 508.869 157.218 509.189 156.993 509.602C156.767 510.016 156.654 510.517 156.654 511.106C156.654 511.682 156.767 512.183 156.993 512.609C157.218 513.023 157.525 513.342 157.914 513.568C158.302 513.793 158.741 513.906 159.229 513.906ZM171.755 516.312C170.602 516.312 169.587 516.086 168.71 515.635C167.845 515.184 167.175 514.57 166.699 513.793C166.223 513.004 165.985 512.108 165.985 511.106C165.985 510.091 166.216 509.195 166.68 508.418C167.156 507.629 167.801 507.015 168.616 506.576C169.43 506.125 170.351 505.9 171.379 505.9C172.369 505.9 173.258 506.113 174.048 506.539C174.849 506.952 175.482 507.554 175.946 508.343C176.409 509.12 176.641 510.053 176.641 511.143C176.641 511.256 176.635 511.388 176.622 511.538C176.61 511.676 176.597 511.807 176.585 511.933H168.372V510.222H175.044L173.916 510.73C173.916 510.204 173.81 509.746 173.596 509.358C173.383 508.969 173.089 508.669 172.713 508.456C172.337 508.23 171.899 508.117 171.398 508.117C170.896 508.117 170.451 508.23 170.063 508.456C169.687 508.669 169.393 508.976 169.18 509.377C168.967 509.765 168.86 510.229 168.86 510.768V511.219C168.86 511.77 168.979 512.259 169.217 512.685C169.468 513.098 169.812 513.418 170.251 513.643C170.702 513.856 171.228 513.963 171.83 513.963C172.369 513.963 172.838 513.881 173.239 513.718C173.653 513.555 174.029 513.311 174.367 512.985L175.927 514.677C175.463 515.203 174.881 515.61 174.179 515.898C173.477 516.174 172.669 516.312 171.755 516.312ZM178.593 516.162V506.05H181.394V508.907L180.999 508.08C181.3 507.366 181.782 506.827 182.446 506.463C183.11 506.088 183.918 505.9 184.871 505.9V508.606C184.745 508.594 184.633 508.587 184.532 508.587C184.432 508.575 184.326 508.569 184.213 508.569C183.411 508.569 182.759 508.8 182.258 509.264C181.77 509.715 181.525 510.423 181.525 511.388V516.162H178.593ZM190.089 516.312C189.225 516.312 188.392 516.212 187.59 516.011C186.8 515.798 186.174 515.535 185.71 515.222L186.688 513.117C187.151 513.405 187.696 513.643 188.323 513.831C188.962 514.006 189.588 514.094 190.202 514.094C190.879 514.094 191.355 514.013 191.631 513.85C191.919 513.687 192.063 513.461 192.063 513.173C192.063 512.935 191.95 512.76 191.725 512.647C191.512 512.522 191.223 512.428 190.86 512.365C190.497 512.302 190.096 512.24 189.657 512.177C189.231 512.114 188.799 512.033 188.36 511.933C187.922 511.82 187.521 511.657 187.157 511.444C186.794 511.231 186.5 510.943 186.274 510.58C186.061 510.216 185.955 509.746 185.955 509.17C185.955 508.531 186.136 507.967 186.5 507.478C186.875 506.99 187.414 506.608 188.116 506.332C188.818 506.044 189.657 505.9 190.634 505.9C191.324 505.9 192.025 505.975 192.739 506.125C193.454 506.276 194.049 506.495 194.525 506.783L193.548 508.869C193.059 508.581 192.564 508.387 192.063 508.287C191.574 508.174 191.098 508.117 190.634 508.117C189.983 508.117 189.507 508.205 189.206 508.381C188.905 508.556 188.755 508.782 188.755 509.057C188.755 509.308 188.861 509.496 189.074 509.621C189.3 509.746 189.594 509.847 189.958 509.922C190.321 509.997 190.716 510.066 191.142 510.128C191.58 510.179 192.019 510.26 192.458 510.373C192.896 510.486 193.291 510.648 193.642 510.861C194.005 511.062 194.299 511.344 194.525 511.707C194.75 512.058 194.863 512.522 194.863 513.098C194.863 513.725 194.675 514.282 194.299 514.771C193.924 515.247 193.378 515.623 192.664 515.898C191.963 516.174 191.104 516.312 190.089 516.312Z" fill="#6A6565"/>
<path d="M67.5435 296.502H231.887C244.376 296.502 254.5 306.626 254.5 319.114V331.438H44.9312V319.114C44.9313 306.626 55.0552 296.502 67.5435 296.502Z" fill="#E0D9D9" stroke="#999797" stroke-width="1.76201"/>
<path d="M128.035 323.527V312.852H123.825V310.371H135.289V312.852H131.079V323.527H128.035ZM140.711 323.678C139.559 323.678 138.544 323.452 137.667 323.001C136.802 322.55 136.132 321.936 135.655 321.159C135.179 320.37 134.941 319.474 134.941 318.472C134.941 317.457 135.173 316.561 135.637 315.784C136.113 314.994 136.758 314.381 137.573 313.942C138.387 313.491 139.308 313.265 140.335 313.265C141.325 313.265 142.215 313.478 143.004 313.904C143.806 314.318 144.439 314.919 144.903 315.709C145.366 316.486 145.598 317.419 145.598 318.509C145.598 318.622 145.592 318.753 145.579 318.904C145.567 319.042 145.554 319.173 145.542 319.299H137.328V317.588H144L142.873 318.096C142.873 317.569 142.766 317.112 142.553 316.724C142.34 316.335 142.046 316.034 141.67 315.821C141.294 315.596 140.855 315.483 140.354 315.483C139.853 315.483 139.408 315.596 139.02 315.821C138.644 316.034 138.349 316.341 138.136 316.742C137.923 317.131 137.817 317.594 137.817 318.133V318.584C137.817 319.136 137.936 319.624 138.174 320.05C138.425 320.464 138.769 320.783 139.208 321.009C139.659 321.222 140.185 321.328 140.786 321.328C141.325 321.328 141.795 321.247 142.196 321.084C142.61 320.921 142.985 320.677 143.324 320.351L144.884 322.043C144.42 322.569 143.837 322.976 143.136 323.264C142.434 323.54 141.626 323.678 140.711 323.678ZM153.477 323.527V321.554L153.289 321.122V317.588C153.289 316.962 153.095 316.473 152.706 316.122C152.33 315.771 151.748 315.596 150.958 315.596C150.42 315.596 149.887 315.684 149.361 315.859C148.847 316.022 148.409 316.247 148.045 316.536L146.993 314.487C147.544 314.099 148.208 313.798 148.985 313.585C149.762 313.372 150.551 313.265 151.353 313.265C152.894 313.265 154.091 313.629 154.943 314.355C155.795 315.082 156.221 316.216 156.221 317.757V323.527H153.477ZM150.395 323.678C149.605 323.678 148.929 323.546 148.365 323.283C147.801 323.007 147.369 322.638 147.068 322.174C146.767 321.711 146.617 321.191 146.617 320.614C146.617 320.013 146.761 319.486 147.049 319.035C147.35 318.584 147.82 318.233 148.459 317.983C149.098 317.72 149.931 317.588 150.958 317.588H153.646V319.299H151.278C150.589 319.299 150.113 319.411 149.85 319.637C149.599 319.862 149.474 320.144 149.474 320.483C149.474 320.858 149.618 321.159 149.906 321.385C150.207 321.598 150.614 321.704 151.128 321.704C151.616 321.704 152.055 321.591 152.443 321.366C152.832 321.128 153.114 320.783 153.289 320.332L153.74 321.685C153.527 322.337 153.139 322.832 152.575 323.17C152.011 323.509 151.284 323.678 150.395 323.678ZM171.824 313.265C172.626 313.265 173.334 313.428 173.948 313.754C174.574 314.067 175.063 314.556 175.414 315.22C175.777 315.872 175.959 316.711 175.959 317.739V323.527H173.027V318.19C173.027 317.375 172.858 316.774 172.52 316.385C172.181 315.997 171.705 315.803 171.091 315.803C170.665 315.803 170.283 315.903 169.945 316.103C169.606 316.291 169.343 316.58 169.155 316.968C168.967 317.356 168.873 317.851 168.873 318.453V323.527H165.941V318.19C165.941 317.375 165.772 316.774 165.434 316.385C165.108 315.997 164.638 315.803 164.024 315.803C163.598 315.803 163.216 315.903 162.878 316.103C162.54 316.291 162.276 316.58 162.088 316.968C161.901 317.356 161.807 317.851 161.807 318.453V323.527H158.875V313.416H161.675V316.179L161.149 315.37C161.5 314.681 161.994 314.161 162.634 313.81C163.285 313.447 164.024 313.265 164.851 313.265C165.779 313.265 166.587 313.503 167.276 313.98C167.978 314.443 168.441 315.157 168.667 316.122L167.633 315.84C167.971 315.051 168.51 314.424 169.249 313.961C170.001 313.497 170.859 313.265 171.824 313.265Z" fill="#6A6565"/>
<rect x="44.9313" y="296.502" width="209.569" height="265.703" rx="22.6125" stroke="#999797" stroke-width="1.76201"/>
<ellipse cx="385.533" cy="369.421" rx="20.3052" ry="20.2596" fill="#E0D9D9"/>
<path d="M376.286 373.642C380.814 380.617 390.528 380.938 395.015 373.851" stroke="#6A6565" stroke-width="2.02919" stroke-linecap="round"/>
<ellipse cx="2.61638" cy="2.72917" rx="2.61638" ry="2.72917" transform="matrix(0.999937 0.0111976 -0.011248 0.999937 375.442 362.668)" fill="#6A6565"/>
<ellipse cx="2.61638" cy="2.72917" rx="2.61638" ry="2.72917" transform="matrix(0.999937 0.0111976 -0.011248 0.999937 390.671 362.668)" fill="#6A6565"/>
<path d="M355.075 412.505C355.075 401.298 364.16 392.213 375.367 392.213H395.699C406.906 392.213 415.991 401.298 415.991 412.505V423.446H355.075V412.505Z" fill="#E0D9D9"/>
<path d="M348.458 421.258V406.107H351.964V418.401H359.562V421.258H348.458ZM366.999 421.431C365.671 421.431 364.502 421.172 363.492 420.652C362.496 420.133 361.724 419.426 361.176 418.531C360.628 417.622 360.354 416.59 360.354 415.436C360.354 414.267 360.621 413.235 361.154 412.341C361.703 411.432 362.446 410.725 363.384 410.22C364.322 409.7 365.382 409.44 366.566 409.44C367.706 409.44 368.73 409.686 369.639 410.176C370.563 410.652 371.291 411.345 371.825 412.254C372.359 413.149 372.626 414.224 372.626 415.479C372.626 415.609 372.619 415.761 372.604 415.934C372.59 416.092 372.576 416.244 372.561 416.388H363.102V414.419H370.786L369.488 415.003C369.488 414.397 369.365 413.87 369.12 413.423C368.874 412.976 368.535 412.629 368.102 412.384C367.669 412.124 367.164 411.994 366.587 411.994C366.01 411.994 365.498 412.124 365.05 412.384C364.618 412.629 364.278 412.983 364.033 413.445C363.788 413.892 363.665 414.426 363.665 415.046V415.566C363.665 416.201 363.802 416.763 364.076 417.254C364.365 417.73 364.762 418.098 365.267 418.358C365.786 418.603 366.392 418.726 367.085 418.726C367.706 418.726 368.247 418.632 368.708 418.444C369.185 418.257 369.618 417.976 370.007 417.6L371.804 419.548C371.27 420.154 370.599 420.623 369.791 420.955C368.983 421.273 368.052 421.431 366.999 421.431ZM381.7 421.258V418.986L381.483 418.488V414.419C381.483 413.697 381.26 413.134 380.812 412.73C380.379 412.326 379.708 412.124 378.799 412.124C378.179 412.124 377.566 412.225 376.96 412.427C376.368 412.615 375.863 412.875 375.444 413.206L374.232 410.847C374.867 410.4 375.632 410.054 376.527 409.808C377.421 409.563 378.33 409.44 379.254 409.44C381.029 409.44 382.407 409.859 383.388 410.696C384.369 411.533 384.86 412.839 384.86 414.613V421.258H381.7ZM378.15 421.431C377.241 421.431 376.462 421.28 375.812 420.977C375.163 420.659 374.665 420.234 374.319 419.7C373.973 419.166 373.799 418.567 373.799 417.903C373.799 417.211 373.965 416.605 374.297 416.085C374.644 415.566 375.185 415.162 375.921 414.873C376.657 414.57 377.616 414.419 378.799 414.419H381.895V416.388H379.167C378.374 416.388 377.825 416.518 377.522 416.778C377.234 417.038 377.089 417.362 377.089 417.752C377.089 418.185 377.255 418.531 377.587 418.791C377.934 419.036 378.403 419.159 378.994 419.159C379.557 419.159 380.062 419.029 380.509 418.769C380.957 418.495 381.281 418.098 381.483 417.579L382.003 419.137C381.758 419.887 381.31 420.457 380.661 420.847C380.012 421.237 379.175 421.431 378.15 421.431ZM393 421.431C391.904 421.431 390.915 421.186 390.035 420.696C389.155 420.19 388.455 419.491 387.935 418.596C387.43 417.701 387.178 416.648 387.178 415.436C387.178 414.209 387.43 413.149 387.935 412.254C388.455 411.359 389.155 410.667 390.035 410.176C390.915 409.686 391.904 409.44 393 409.44C393.982 409.44 394.84 409.657 395.576 410.09C396.312 410.523 396.882 411.179 397.286 412.059C397.69 412.94 397.892 414.065 397.892 415.436C397.892 416.792 397.697 417.918 397.308 418.812C396.918 419.693 396.355 420.349 395.619 420.782C394.898 421.215 394.025 421.431 393 421.431ZM393.585 418.661C394.133 418.661 394.631 418.531 395.078 418.271C395.526 418.012 395.879 417.644 396.139 417.167C396.413 416.677 396.55 416.1 396.55 415.436C396.55 414.758 396.413 414.18 396.139 413.704C395.879 413.228 395.526 412.86 395.078 412.6C394.631 412.341 394.133 412.211 393.585 412.211C393.022 412.211 392.517 412.341 392.07 412.6C391.622 412.86 391.262 413.228 390.987 413.704C390.728 414.18 390.598 414.758 390.598 415.436C390.598 416.1 390.728 416.677 390.987 417.167C391.262 417.644 391.622 418.012 392.07 418.271C392.517 418.531 393.022 418.661 393.585 418.661ZM396.637 421.258V418.877L396.702 415.414L396.485 411.973V405.198H399.862V421.258H396.637ZM408.766 421.431C407.438 421.431 406.27 421.172 405.259 420.652C404.264 420.133 403.492 419.426 402.944 418.531C402.395 417.622 402.121 416.59 402.121 415.436C402.121 414.267 402.388 413.235 402.922 412.341C403.47 411.432 404.213 410.725 405.151 410.22C406.089 409.7 407.15 409.44 408.333 409.44C409.473 409.44 410.497 409.686 411.407 410.176C412.33 410.652 413.059 411.345 413.593 412.254C414.127 413.149 414.394 414.224 414.394 415.479C414.394 415.609 414.386 415.761 414.372 415.934C414.357 416.092 414.343 416.244 414.329 416.388H404.87V414.419H412.554L411.255 415.003C411.255 414.397 411.132 413.87 410.887 413.423C410.642 412.976 410.303 412.629 409.87 412.384C409.437 412.124 408.932 411.994 408.355 411.994C407.777 411.994 407.265 412.124 406.818 412.384C406.385 412.629 406.046 412.983 405.801 413.445C405.555 413.892 405.433 414.426 405.433 415.046V415.566C405.433 416.201 405.57 416.763 405.844 417.254C406.132 417.73 406.529 418.098 407.034 418.358C407.554 418.603 408.16 418.726 408.853 418.726C409.473 418.726 410.014 418.632 410.476 418.444C410.952 418.257 411.385 417.976 411.775 417.6L413.571 419.548C413.037 420.154 412.366 420.623 411.558 420.955C410.75 421.273 409.819 421.431 408.766 421.431ZM416.642 421.258V409.613H419.867V412.903L419.412 411.951C419.758 411.129 420.314 410.508 421.079 410.09C421.843 409.657 422.774 409.44 423.871 409.44V412.557C423.727 412.543 423.597 412.536 423.481 412.536C423.366 412.521 423.243 412.514 423.113 412.514C422.19 412.514 421.439 412.781 420.862 413.315C420.299 413.834 420.018 414.649 420.018 415.761V421.258H416.642Z" fill="#6A6565"/>
<ellipse cx="387.57" cy="467.64" rx="20.3052" ry="20.2596" fill="#E0D9D9"/>
<path d="M378.322 471.861C382.851 478.836 392.565 479.158 397.052 472.071" stroke="#6A6565" stroke-width="2.02919" stroke-linecap="round"/>
<ellipse cx="2.61638" cy="2.72917" rx="2.61638" ry="2.72917" transform="matrix(0.999937 0.0111976 -0.011248 0.999937 377.478 460.887)" fill="#6A6565"/>
<ellipse cx="2.61638" cy="2.72917" rx="2.61638" ry="2.72917" transform="matrix(0.999937 0.0111976 -0.011248 0.999937 392.707 460.887)" fill="#6A6565"/>
<path d="M357.112 510.724C357.112 499.517 366.197 490.432 377.404 490.432H397.736C408.943 490.432 418.028 499.517 418.028 510.724V521.666H357.112V510.724Z" fill="#E0D9D9"/>
<path d="M346.914 467.64C346.914 478.829 337.823 487.9 326.609 487.9C315.394 487.9 306.303 478.829 306.303 467.64C306.303 456.451 315.394 447.38 326.609 447.38C337.823 447.38 346.914 456.451 346.914 467.64Z" fill="#E0D9D9"/>
<path d="M317.361 471.861C321.89 478.836 331.604 479.158 336.091 472.071" stroke="#6A6565" stroke-width="2.02919" stroke-linecap="round"/>
<ellipse cx="2.61638" cy="2.72917" rx="2.61638" ry="2.72917" transform="matrix(0.999937 0.0111976 -0.011248 0.999937 316.517 460.887)" fill="#6A6565"/>
<ellipse cx="2.61638" cy="2.72917" rx="2.61638" ry="2.72917" transform="matrix(0.999937 0.0111976 -0.011248 0.999937 331.746 460.887)" fill="#6A6565"/>
<path d="M296.151 510.724C296.151 499.517 305.236 490.432 316.443 490.432H336.774C347.981 490.432 357.066 499.517 357.066 510.724V521.666H296.151V510.724Z" fill="#E0D9D9"/>
<ellipse cx="448.359" cy="467.64" rx="20.3052" ry="20.2596" fill="#E0D9D9"/>
<path d="M439.112 471.861C443.64 478.836 453.354 479.158 457.842 472.071" stroke="#6A6565" stroke-width="2.02919" stroke-linecap="round"/>
<ellipse cx="2.61638" cy="2.72917" rx="2.61638" ry="2.72917" transform="matrix(0.999937 0.0111976 -0.011248 0.999937 438.268 460.887)" fill="#6A6565"/>
<ellipse cx="2.61638" cy="2.72917" rx="2.61638" ry="2.72917" transform="matrix(0.999937 0.0111976 -0.011248 0.999937 453.497 460.887)" fill="#6A6565"/>
<path d="M417.902 510.724C417.902 499.517 426.987 490.432 438.194 490.432H458.526C469.732 490.432 478.817 499.517 478.817 510.724V521.666H417.902V510.724Z" fill="#E0D9D9"/>
<path d="M342.447 518.161V505.005H344.965L350.566 514.289H349.232L354.739 505.005H357.238L357.276 518.161H354.419L354.4 509.384H354.926L350.528 516.77H349.156L344.664 509.384H345.304V518.161H342.447ZM365.209 518.311C364.056 518.311 363.041 518.086 362.164 517.635C361.299 517.184 360.629 516.57 360.153 515.793C359.677 515.004 359.439 514.108 359.439 513.105C359.439 512.09 359.67 511.195 360.134 510.418C360.61 509.628 361.256 509.014 362.07 508.576C362.884 508.125 363.805 507.899 364.833 507.899C365.823 507.899 366.712 508.112 367.502 508.538C368.304 508.952 368.936 509.553 369.4 510.342C369.864 511.119 370.095 512.053 370.095 513.143C370.095 513.256 370.089 513.387 370.077 513.538C370.064 513.675 370.051 513.807 370.039 513.932H361.826V512.222H368.498L367.37 512.729C367.37 512.203 367.264 511.746 367.051 511.357C366.838 510.969 366.543 510.668 366.167 510.455C365.791 510.23 365.353 510.117 364.852 510.117C364.35 510.117 363.906 510.23 363.517 510.455C363.141 510.668 362.847 510.975 362.634 511.376C362.421 511.765 362.314 512.228 362.314 512.767V513.218C362.314 513.769 362.433 514.258 362.671 514.684C362.922 515.098 363.267 515.417 363.705 515.643C364.156 515.856 364.682 515.962 365.284 515.962C365.823 515.962 366.293 515.881 366.693 515.718C367.107 515.555 367.483 515.311 367.821 514.985L369.381 516.676C368.918 517.203 368.335 517.61 367.633 517.898C366.932 518.174 366.123 518.311 365.209 518.311ZM384.997 507.899C385.799 507.899 386.507 508.062 387.121 508.388C387.747 508.701 388.236 509.19 388.587 509.854C388.95 510.505 389.132 511.345 389.132 512.372V518.161H386.2V512.823C386.2 512.009 386.031 511.408 385.692 511.019C385.354 510.631 384.878 510.436 384.264 510.436C383.838 510.436 383.456 510.537 383.118 510.737C382.779 510.925 382.516 511.213 382.328 511.602C382.14 511.99 382.046 512.485 382.046 513.087V518.161H379.114V512.823C379.114 512.009 378.945 511.408 378.607 511.019C378.281 510.631 377.811 510.436 377.197 510.436C376.771 510.436 376.389 510.537 376.051 510.737C375.712 510.925 375.449 511.213 375.261 511.602C375.073 511.99 374.979 512.485 374.979 513.087V518.161H372.047V508.05H374.848V510.812L374.322 510.004C374.672 509.315 375.167 508.795 375.806 508.444C376.458 508.081 377.197 507.899 378.024 507.899C378.951 507.899 379.759 508.137 380.449 508.613C381.15 509.077 381.614 509.791 381.839 510.756L380.806 510.474C381.144 509.685 381.683 509.058 382.422 508.595C383.174 508.131 384.032 507.899 384.997 507.899ZM397.737 518.311C396.847 518.311 396.083 518.124 395.444 517.748C394.805 517.372 394.316 516.802 393.978 516.037C393.639 515.26 393.47 514.283 393.47 513.105C393.47 511.915 393.646 510.938 393.996 510.173C394.36 509.409 394.861 508.839 395.5 508.463C396.139 508.087 396.885 507.899 397.737 507.899C398.689 507.899 399.541 508.112 400.293 508.538C401.057 508.964 401.658 509.566 402.097 510.342C402.548 511.119 402.774 512.04 402.774 513.105C402.774 514.158 402.548 515.073 402.097 515.849C401.658 516.626 401.057 517.234 400.293 517.672C399.541 518.098 398.689 518.311 397.737 518.311ZM391.76 518.161V504.215H394.692V510.098L394.504 513.087L394.56 516.094V518.161H391.76ZM397.229 515.906C397.718 515.906 398.15 515.793 398.526 515.567C398.914 515.342 399.221 515.022 399.447 514.609C399.685 514.183 399.804 513.682 399.804 513.105C399.804 512.516 399.685 512.015 399.447 511.602C399.221 511.188 398.914 510.869 398.526 510.643C398.15 510.418 397.718 510.305 397.229 510.305C396.741 510.305 396.302 510.418 395.914 510.643C395.525 510.869 395.218 511.188 394.993 511.602C394.767 512.015 394.654 512.516 394.654 513.105C394.654 513.682 394.767 514.183 394.993 514.609C395.218 515.022 395.525 515.342 395.914 515.567C396.302 515.793 396.741 515.906 397.229 515.906ZM409.755 518.311C408.602 518.311 407.587 518.086 406.71 517.635C405.845 517.184 405.175 516.57 404.699 515.793C404.223 515.004 403.985 514.108 403.985 513.105C403.985 512.09 404.216 511.195 404.68 510.418C405.156 509.628 405.801 509.014 406.616 508.576C407.43 508.125 408.351 507.899 409.379 507.899C410.369 507.899 411.258 508.112 412.048 508.538C412.849 508.952 413.482 509.553 413.946 510.342C414.409 511.119 414.641 512.053 414.641 513.143C414.641 513.256 414.635 513.387 414.622 513.538C414.61 513.675 414.597 513.807 414.585 513.932H406.372V512.222H413.044L411.916 512.729C411.916 512.203 411.81 511.746 411.596 511.357C411.383 510.969 411.089 510.668 410.713 510.455C410.337 510.23 409.899 510.117 409.398 510.117C408.896 510.117 408.451 510.23 408.063 510.455C407.687 510.668 407.393 510.975 407.18 511.376C406.967 511.765 406.86 512.228 406.86 512.767V513.218C406.86 513.769 406.979 514.258 407.217 514.684C407.468 515.098 407.812 515.417 408.251 515.643C408.702 515.856 409.228 515.962 409.83 515.962C410.369 515.962 410.838 515.881 411.239 515.718C411.653 515.555 412.029 515.311 412.367 514.985L413.927 516.676C413.463 517.203 412.881 517.61 412.179 517.898C411.477 518.174 410.669 518.311 409.755 518.311ZM416.593 518.161V508.05H419.394V510.906L418.999 510.079C419.3 509.365 419.782 508.826 420.446 508.463C421.11 508.087 421.918 507.899 422.871 507.899V510.606C422.745 510.593 422.633 510.587 422.532 510.587C422.432 510.574 422.326 510.568 422.213 510.568C421.411 510.568 420.759 510.8 420.258 511.263C419.77 511.715 419.525 512.422 419.525 513.387V518.161H416.593ZM428.089 518.311C427.225 518.311 426.392 518.211 425.59 518.011C424.8 517.798 424.174 517.535 423.71 517.221L424.688 515.116C425.151 515.405 425.696 515.643 426.323 515.831C426.962 516.006 427.588 516.094 428.202 516.094C428.879 516.094 429.355 516.012 429.631 515.849C429.919 515.686 430.063 515.461 430.063 515.173C430.063 514.935 429.95 514.759 429.725 514.647C429.512 514.521 429.223 514.427 428.86 514.365C428.497 514.302 428.096 514.239 427.657 514.177C427.231 514.114 426.799 514.033 426.36 513.932C425.922 513.82 425.521 513.657 425.157 513.444C424.794 513.231 424.5 512.942 424.274 512.579C424.061 512.216 423.955 511.746 423.955 511.169C423.955 510.53 424.136 509.967 424.5 509.478C424.875 508.989 425.414 508.607 426.116 508.331C426.818 508.043 427.657 507.899 428.634 507.899C429.324 507.899 430.025 507.974 430.739 508.125C431.454 508.275 432.049 508.494 432.525 508.783L431.548 510.869C431.059 510.581 430.564 510.386 430.063 510.286C429.574 510.173 429.098 510.117 428.634 510.117C427.983 510.117 427.507 510.205 427.206 510.38C426.905 510.555 426.755 510.781 426.755 511.057C426.755 511.307 426.861 511.495 427.074 511.621C427.3 511.746 427.594 511.846 427.958 511.921C428.321 511.996 428.716 512.065 429.142 512.128C429.58 512.178 430.019 512.26 430.458 512.372C430.896 512.485 431.291 512.648 431.642 512.861C432.005 513.061 432.299 513.343 432.525 513.707C432.75 514.058 432.863 514.521 432.863 515.098C432.863 515.724 432.675 516.282 432.299 516.77C431.924 517.246 431.378 517.622 430.664 517.898C429.963 518.174 429.104 518.311 428.089 518.311Z" fill="#6A6565"/>
<path d="M303.066 296.089H467.41C479.898 296.089 490.023 306.213 490.023 318.701V331.025H280.454V318.701C280.454 306.213 290.578 296.089 303.066 296.089Z" fill="#E0D9D9" stroke="#999797" stroke-width="1.76201"/>
<path d="M363.557 323.114V312.439H359.347V309.958H370.812V312.439H366.602V323.114H363.557ZM376.234 323.265C375.081 323.265 374.066 323.039 373.189 322.588C372.324 322.137 371.654 321.523 371.178 320.746C370.702 319.957 370.464 319.061 370.464 318.058C370.464 317.044 370.696 316.148 371.159 315.371C371.635 314.581 372.281 313.967 373.095 313.529C373.909 313.078 374.83 312.852 375.858 312.852C376.848 312.852 377.737 313.065 378.527 313.491C379.329 313.905 379.961 314.506 380.425 315.296C380.889 316.072 381.12 317.006 381.12 318.096C381.12 318.209 381.114 318.34 381.102 318.491C381.089 318.629 381.077 318.76 381.064 318.885H372.851V317.175H379.523L378.395 317.683C378.395 317.156 378.289 316.699 378.076 316.311C377.863 315.922 377.568 315.621 377.192 315.408C376.816 315.183 376.378 315.07 375.877 315.07C375.375 315.07 374.931 315.183 374.542 315.408C374.166 315.621 373.872 315.928 373.659 316.329C373.446 316.718 373.339 317.181 373.339 317.72V318.171C373.339 318.723 373.458 319.211 373.696 319.637C373.947 320.051 374.292 320.37 374.73 320.596C375.181 320.809 375.707 320.915 376.309 320.915C376.848 320.915 377.318 320.834 377.719 320.671C378.132 320.508 378.508 320.264 378.846 319.938L380.406 321.629C379.943 322.156 379.36 322.563 378.658 322.851C377.957 323.127 377.148 323.265 376.234 323.265ZM388.999 323.114V321.141L388.811 320.709V317.175C388.811 316.549 388.617 316.06 388.229 315.709C387.853 315.358 387.27 315.183 386.481 315.183C385.942 315.183 385.41 315.271 384.883 315.446C384.37 315.609 383.931 315.834 383.568 316.123L382.515 314.074C383.066 313.686 383.731 313.385 384.507 313.172C385.284 312.959 386.074 312.852 386.876 312.852C388.417 312.852 389.613 313.216 390.465 313.942C391.317 314.669 391.743 315.803 391.743 317.344V323.114H388.999ZM385.917 323.265C385.128 323.265 384.451 323.133 383.887 322.87C383.323 322.594 382.891 322.225 382.59 321.761C382.29 321.297 382.139 320.777 382.139 320.201C382.139 319.6 382.283 319.073 382.572 318.622C382.872 318.171 383.342 317.82 383.981 317.57C384.62 317.307 385.453 317.175 386.481 317.175H389.169V318.885H386.8C386.111 318.885 385.635 318.998 385.372 319.224C385.121 319.449 384.996 319.731 384.996 320.069C384.996 320.445 385.14 320.746 385.428 320.972C385.729 321.185 386.136 321.291 386.65 321.291C387.139 321.291 387.577 321.178 387.966 320.953C388.354 320.715 388.636 320.37 388.811 319.919L389.263 321.272C389.05 321.924 388.661 322.419 388.097 322.757C387.533 323.095 386.807 323.265 385.917 323.265ZM407.347 312.852C408.149 312.852 408.856 313.015 409.47 313.341C410.097 313.654 410.586 314.143 410.936 314.807C411.3 315.459 411.482 316.298 411.482 317.325V323.114H408.55V317.777C408.55 316.962 408.38 316.361 408.042 315.972C407.704 315.584 407.228 315.39 406.614 315.39C406.188 315.39 405.805 315.49 405.467 315.69C405.129 315.878 404.866 316.166 404.678 316.555C404.49 316.943 404.396 317.438 404.396 318.04V323.114H401.464V317.777C401.464 316.962 401.295 316.361 400.956 315.972C400.631 315.584 400.161 315.39 399.547 315.39C399.121 315.39 398.739 315.49 398.4 315.69C398.062 315.878 397.799 316.166 397.611 316.555C397.423 316.943 397.329 317.438 397.329 318.04V323.114H394.397V313.003H397.197V315.765L396.671 314.957C397.022 314.268 397.517 313.748 398.156 313.397C398.808 313.034 399.547 312.852 400.374 312.852C401.301 312.852 402.109 313.09 402.798 313.566C403.5 314.03 403.964 314.744 404.189 315.709L403.155 315.427C403.494 314.638 404.032 314.011 404.772 313.548C405.524 313.084 406.382 312.852 407.347 312.852Z" fill="#6A6565"/>
<rect x="280.454" y="296.089" width="209.569" height="265.703" rx="22.6125" stroke="#999797" stroke-width="1.76201"/>
<ellipse cx="621.533" cy="370.421" rx="20.3052" ry="20.2596" fill="#E0D9D9"/>
<path d="M612.286 374.642C616.814 381.618 626.528 381.939 631.016 374.852" stroke="#6A6565" stroke-width="2.02919" stroke-linecap="round"/>
<ellipse cx="2.61638" cy="2.72917" rx="2.61638" ry="2.72917" transform="matrix(0.999937 0.0111976 -0.011248 0.999937 611.442 363.668)" fill="#6A6565"/>
<ellipse cx="2.61638" cy="2.72917" rx="2.61638" ry="2.72917" transform="matrix(0.999937 0.0111976 -0.011248 0.999937 626.671 363.668)" fill="#6A6565"/>
<path d="M591.075 413.505C591.075 402.298 600.16 393.213 611.367 393.213H631.699C642.906 393.213 651.991 402.298 651.991 413.505V424.446H591.075V413.505Z" fill="#E0D9D9"/>
<path d="M584.458 422.259V407.108H587.964V419.402H595.562V422.259H584.458ZM602.999 422.432C601.671 422.432 600.502 422.172 599.492 421.653C598.496 421.133 597.724 420.426 597.176 419.532C596.628 418.622 596.354 417.591 596.354 416.436C596.354 415.268 596.621 414.236 597.154 413.341C597.703 412.432 598.446 411.725 599.384 411.22C600.322 410.701 601.382 410.441 602.566 410.441C603.706 410.441 604.73 410.686 605.639 411.177C606.563 411.653 607.291 412.346 607.825 413.255C608.359 414.149 608.626 415.224 608.626 416.48C608.626 416.61 608.619 416.761 608.604 416.934C608.59 417.093 608.576 417.244 608.561 417.389H599.102V415.419H606.786L605.488 416.003C605.488 415.397 605.365 414.871 605.12 414.423C604.874 413.976 604.535 413.63 604.102 413.384C603.669 413.125 603.164 412.995 602.587 412.995C602.01 412.995 601.498 413.125 601.05 413.384C600.618 413.63 600.278 413.983 600.033 414.445C599.788 414.892 599.665 415.426 599.665 416.047V416.566C599.665 417.201 599.802 417.764 600.076 418.255C600.365 418.731 600.762 419.099 601.267 419.358C601.786 419.604 602.392 419.726 603.085 419.726C603.706 419.726 604.247 419.633 604.708 419.445C605.185 419.257 605.618 418.976 606.007 418.601L607.804 420.549C607.27 421.155 606.599 421.624 605.791 421.956C604.983 422.273 604.052 422.432 602.999 422.432ZM617.7 422.259V419.986L617.483 419.488V415.419C617.483 414.698 617.26 414.135 616.812 413.731C616.379 413.327 615.708 413.125 614.799 413.125C614.179 413.125 613.566 413.226 612.96 413.428C612.368 413.615 611.863 413.875 611.444 414.207L610.232 411.848C610.867 411.4 611.632 411.054 612.527 410.809C613.421 410.563 614.33 410.441 615.254 410.441C617.029 410.441 618.407 410.859 619.388 411.696C620.369 412.533 620.86 413.839 620.86 415.614V422.259H617.7ZM614.15 422.432C613.241 422.432 612.462 422.28 611.812 421.977C611.163 421.66 610.665 421.234 610.319 420.7C609.973 420.166 609.799 419.568 609.799 418.904C609.799 418.211 609.965 417.605 610.297 417.086C610.644 416.566 611.185 416.162 611.921 415.874C612.657 415.571 613.616 415.419 614.799 415.419H617.895V417.389H615.167C614.374 417.389 613.825 417.519 613.522 417.778C613.234 418.038 613.089 418.363 613.089 418.752C613.089 419.185 613.255 419.532 613.587 419.791C613.934 420.037 614.403 420.159 614.994 420.159C615.557 420.159 616.062 420.029 616.509 419.77C616.957 419.495 617.281 419.099 617.483 418.579L618.003 420.138C617.758 420.888 617.31 421.458 616.661 421.848C616.012 422.237 615.175 422.432 614.15 422.432ZM629 422.432C627.904 422.432 626.915 422.187 626.035 421.696C625.155 421.191 624.455 420.491 623.935 419.596C623.43 418.702 623.178 417.648 623.178 416.436C623.178 415.21 623.43 414.149 623.935 413.255C624.455 412.36 625.155 411.667 626.035 411.177C626.915 410.686 627.904 410.441 629 410.441C629.982 410.441 630.84 410.657 631.576 411.09C632.312 411.523 632.882 412.18 633.286 413.06C633.69 413.94 633.892 415.066 633.892 416.436C633.892 417.793 633.697 418.918 633.308 419.813C632.918 420.693 632.355 421.35 631.619 421.783C630.898 422.215 630.025 422.432 629 422.432ZM629.585 419.661C630.133 419.661 630.631 419.532 631.078 419.272C631.526 419.012 631.879 418.644 632.139 418.168C632.413 417.677 632.55 417.1 632.55 416.436C632.55 415.758 632.413 415.181 632.139 414.705C631.879 414.229 631.526 413.861 631.078 413.601C630.631 413.341 630.133 413.211 629.585 413.211C629.022 413.211 628.517 413.341 628.07 413.601C627.622 413.861 627.262 414.229 626.987 414.705C626.728 415.181 626.598 415.758 626.598 416.436C626.598 417.1 626.728 417.677 626.987 418.168C627.262 418.644 627.622 419.012 628.07 419.272C628.517 419.532 629.022 419.661 629.585 419.661ZM632.637 422.259V419.878L632.702 416.415L632.485 412.973V406.198H635.862V422.259H632.637ZM644.766 422.432C643.438 422.432 642.27 422.172 641.259 421.653C640.264 421.133 639.492 420.426 638.944 419.532C638.395 418.622 638.121 417.591 638.121 416.436C638.121 415.268 638.388 414.236 638.922 413.341C639.47 412.432 640.213 411.725 641.151 411.22C642.089 410.701 643.15 410.441 644.333 410.441C645.473 410.441 646.497 410.686 647.407 411.177C648.33 411.653 649.059 412.346 649.593 413.255C650.127 414.149 650.394 415.224 650.394 416.48C650.394 416.61 650.386 416.761 650.372 416.934C650.357 417.093 650.343 417.244 650.329 417.389H640.87V415.419H648.554L647.255 416.003C647.255 415.397 647.132 414.871 646.887 414.423C646.642 413.976 646.303 413.63 645.87 413.384C645.437 413.125 644.932 412.995 644.355 412.995C643.777 412.995 643.265 413.125 642.818 413.384C642.385 413.63 642.046 413.983 641.801 414.445C641.555 414.892 641.433 415.426 641.433 416.047V416.566C641.433 417.201 641.57 417.764 641.844 418.255C642.132 418.731 642.529 419.099 643.034 419.358C643.554 419.604 644.16 419.726 644.853 419.726C645.473 419.726 646.014 419.633 646.476 419.445C646.952 419.257 647.385 418.976 647.775 418.601L649.571 420.549C649.037 421.155 648.366 421.624 647.558 421.956C646.75 422.273 645.819 422.432 644.766 422.432ZM652.642 422.259V410.614H655.867V413.904L655.412 412.952C655.758 412.129 656.314 411.509 657.079 411.09C657.843 410.657 658.774 410.441 659.871 410.441V413.558C659.727 413.543 659.597 413.536 659.481 413.536C659.366 413.522 659.243 413.514 659.113 413.514C658.19 413.514 657.439 413.781 656.862 414.315C656.299 414.835 656.018 415.65 656.018 416.761V422.259H652.642Z" fill="#6A6565"/>
<ellipse cx="620.57" cy="469.64" rx="20.3052" ry="20.2596" fill="#E0D9D9"/>
<path d="M611.323 473.861C615.851 480.837 625.565 481.158 630.052 474.071" stroke="#6A6565" stroke-width="2.02919" stroke-linecap="round"/>
<ellipse cx="2.61638" cy="2.72917" rx="2.61638" ry="2.72917" transform="matrix(0.999937 0.0111976 -0.011248 0.999937 610.479 462.887)" fill="#6A6565"/>
<ellipse cx="2.61638" cy="2.72917" rx="2.61638" ry="2.72917" transform="matrix(0.999937 0.0111976 -0.011248 0.999937 625.708 462.887)" fill="#6A6565"/>
<path d="M590.112 512.724C590.112 501.517 599.197 492.432 610.404 492.432H630.736C641.943 492.432 651.028 501.517 651.028 512.724V523.666H590.112V512.724Z" fill="#E0D9D9"/>
<path d="M579.914 469.64C579.914 480.83 570.823 489.9 559.608 489.9C548.394 489.9 539.303 480.83 539.303 469.64C539.303 458.451 548.394 449.381 559.608 449.381C570.823 449.381 579.914 458.451 579.914 469.64Z" fill="#E0D9D9"/>
<path d="M550.361 473.861C554.89 480.837 564.604 481.158 569.091 474.071" stroke="#6A6565" stroke-width="2.02919" stroke-linecap="round"/>
<ellipse cx="2.61638" cy="2.72917" rx="2.61638" ry="2.72917" transform="matrix(0.999937 0.0111976 -0.011248 0.999937 549.517 462.887)" fill="#6A6565"/>
<ellipse cx="2.61638" cy="2.72917" rx="2.61638" ry="2.72917" transform="matrix(0.999937 0.0111976 -0.011248 0.999937 564.746 462.887)" fill="#6A6565"/>
<path d="M529.151 512.724C529.151 501.517 538.236 492.432 549.443 492.432H569.774C580.981 492.432 590.066 501.517 590.066 512.724V523.666H529.151V512.724Z" fill="#E0D9D9"/>
<ellipse cx="681.359" cy="469.64" rx="20.3052" ry="20.2596" fill="#E0D9D9"/>
<path d="M672.112 473.861C676.64 480.837 686.354 481.158 690.842 474.071" stroke="#6A6565" stroke-width="2.02919" stroke-linecap="round"/>
<ellipse cx="2.61638" cy="2.72917" rx="2.61638" ry="2.72917" transform="matrix(0.999937 0.0111976 -0.011248 0.999937 671.268 462.887)" fill="#6A6565"/>
<ellipse cx="2.61638" cy="2.72917" rx="2.61638" ry="2.72917" transform="matrix(0.999937 0.0111976 -0.011248 0.999937 686.497 462.887)" fill="#6A6565"/>
<path d="M650.902 512.724C650.902 501.517 659.987 492.432 671.194 492.432H691.526C702.732 492.432 711.817 501.517 711.817 512.724V523.666H650.902V512.724Z" fill="#E0D9D9"/>
<path d="M575.447 520.162V507.005H577.965L583.566 516.29H582.232L587.739 507.005H590.238L590.276 520.162H587.419L587.4 511.384H587.926L583.528 518.771H582.156L577.664 511.384H578.304V520.162H575.447ZM598.209 520.312C597.056 520.312 596.041 520.086 595.164 519.635C594.299 519.184 593.629 518.57 593.153 517.793C592.677 517.004 592.439 516.108 592.439 515.106C592.439 514.091 592.67 513.195 593.134 512.418C593.61 511.629 594.256 511.015 595.07 510.576C595.884 510.125 596.805 509.9 597.833 509.9C598.823 509.9 599.712 510.113 600.502 510.539C601.304 510.952 601.936 511.554 602.4 512.343C602.864 513.12 603.095 514.053 603.095 515.143C603.095 515.256 603.089 515.388 603.077 515.538C603.064 515.676 603.051 515.807 603.039 515.933H594.826V514.222H601.498L600.37 514.73C600.37 514.204 600.264 513.746 600.051 513.358C599.838 512.969 599.543 512.669 599.167 512.456C598.791 512.23 598.353 512.117 597.852 512.117C597.35 512.117 596.906 512.23 596.517 512.456C596.141 512.669 595.847 512.976 595.634 513.377C595.421 513.765 595.314 514.229 595.314 514.768V515.219C595.314 515.77 595.433 516.259 595.671 516.685C595.922 517.098 596.267 517.418 596.705 517.643C597.156 517.856 597.682 517.963 598.284 517.963C598.823 517.963 599.293 517.881 599.693 517.718C600.107 517.555 600.483 517.311 600.821 516.985L602.381 518.677C601.918 519.203 601.335 519.61 600.633 519.898C599.932 520.174 599.123 520.312 598.209 520.312ZM617.997 509.9C618.799 509.9 619.507 510.063 620.121 510.388C620.747 510.702 621.236 511.19 621.587 511.854C621.95 512.506 622.132 513.345 622.132 514.373V520.162H619.2V514.824C619.2 514.009 619.031 513.408 618.692 513.02C618.354 512.631 617.878 512.437 617.264 512.437C616.838 512.437 616.456 512.537 616.118 512.738C615.779 512.926 615.516 513.214 615.328 513.602C615.14 513.991 615.046 514.486 615.046 515.087V520.162H612.114V514.824C612.114 514.009 611.945 513.408 611.607 513.02C611.281 512.631 610.811 512.437 610.197 512.437C609.771 512.437 609.389 512.537 609.051 512.738C608.712 512.926 608.449 513.214 608.261 513.602C608.073 513.991 607.979 514.486 607.979 515.087V520.162H605.047V510.05H607.848V512.813L607.322 512.005C607.672 511.316 608.167 510.796 608.806 510.445C609.458 510.081 610.197 509.9 611.024 509.9C611.951 509.9 612.759 510.138 613.449 510.614C614.15 511.077 614.614 511.792 614.839 512.756L613.806 512.475C614.144 511.685 614.683 511.059 615.422 510.595C616.174 510.131 617.032 509.9 617.997 509.9ZM630.737 520.312C629.847 520.312 629.083 520.124 628.444 519.748C627.805 519.372 627.316 518.802 626.978 518.038C626.639 517.261 626.47 516.284 626.47 515.106C626.47 513.915 626.646 512.938 626.996 512.174C627.36 511.41 627.861 510.839 628.5 510.463C629.139 510.088 629.885 509.9 630.737 509.9C631.689 509.9 632.541 510.113 633.293 510.539C634.057 510.965 634.658 511.566 635.097 512.343C635.548 513.12 635.774 514.041 635.774 515.106C635.774 516.158 635.548 517.073 635.097 517.85C634.658 518.627 634.057 519.234 633.293 519.673C632.541 520.099 631.689 520.312 630.737 520.312ZM624.76 520.162V506.216H627.692V512.099L627.504 515.087L627.56 518.094V520.162H624.76ZM630.229 517.906C630.718 517.906 631.15 517.793 631.526 517.568C631.914 517.342 632.221 517.023 632.447 516.609C632.685 516.183 632.804 515.682 632.804 515.106C632.804 514.517 632.685 514.016 632.447 513.602C632.221 513.189 631.914 512.869 631.526 512.644C631.15 512.418 630.718 512.305 630.229 512.305C629.741 512.305 629.302 512.418 628.914 512.644C628.525 512.869 628.218 513.189 627.993 513.602C627.767 514.016 627.654 514.517 627.654 515.106C627.654 515.682 627.767 516.183 627.993 516.609C628.218 517.023 628.525 517.342 628.914 517.568C629.302 517.793 629.741 517.906 630.229 517.906ZM642.755 520.312C641.602 520.312 640.587 520.086 639.71 519.635C638.845 519.184 638.175 518.57 637.699 517.793C637.223 517.004 636.985 516.108 636.985 515.106C636.985 514.091 637.216 513.195 637.68 512.418C638.156 511.629 638.801 511.015 639.616 510.576C640.43 510.125 641.351 509.9 642.379 509.9C643.369 509.9 644.258 510.113 645.048 510.539C645.849 510.952 646.482 511.554 646.946 512.343C647.409 513.12 647.641 514.053 647.641 515.143C647.641 515.256 647.635 515.388 647.622 515.538C647.61 515.676 647.597 515.807 647.585 515.933H639.372V514.222H646.044L644.916 514.73C644.916 514.204 644.81 513.746 644.596 513.358C644.383 512.969 644.089 512.669 643.713 512.456C643.337 512.23 642.899 512.117 642.398 512.117C641.896 512.117 641.451 512.23 641.063 512.456C640.687 512.669 640.393 512.976 640.18 513.377C639.967 513.765 639.86 514.229 639.86 514.768V515.219C639.86 515.77 639.979 516.259 640.217 516.685C640.468 517.098 640.812 517.418 641.251 517.643C641.702 517.856 642.228 517.963 642.83 517.963C643.369 517.963 643.838 517.881 644.239 517.718C644.653 517.555 645.029 517.311 645.367 516.985L646.927 518.677C646.463 519.203 645.881 519.61 645.179 519.898C644.477 520.174 643.669 520.312 642.755 520.312ZM649.593 520.162V510.05H652.394V512.907L651.999 512.08C652.3 511.366 652.782 510.827 653.446 510.463C654.11 510.088 654.918 509.9 655.871 509.9V512.606C655.745 512.594 655.633 512.587 655.532 512.587C655.432 512.575 655.326 512.569 655.213 512.569C654.411 512.569 653.759 512.8 653.258 513.264C652.77 513.715 652.525 514.423 652.525 515.388V520.162H649.593ZM661.089 520.312C660.225 520.312 659.392 520.212 658.59 520.011C657.8 519.798 657.174 519.535 656.71 519.222L657.688 517.117C658.151 517.405 658.696 517.643 659.323 517.831C659.962 518.006 660.588 518.094 661.202 518.094C661.879 518.094 662.355 518.013 662.631 517.85C662.919 517.687 663.063 517.461 663.063 517.173C663.063 516.935 662.95 516.76 662.725 516.647C662.512 516.522 662.223 516.428 661.86 516.365C661.497 516.302 661.096 516.24 660.657 516.177C660.231 516.114 659.799 516.033 659.36 515.933C658.922 515.82 658.521 515.657 658.157 515.444C657.794 515.231 657.5 514.943 657.274 514.58C657.061 514.216 656.955 513.746 656.955 513.17C656.955 512.531 657.136 511.967 657.5 511.478C657.875 510.99 658.414 510.608 659.116 510.332C659.818 510.044 660.657 509.9 661.634 509.9C662.324 509.9 663.025 509.975 663.739 510.125C664.454 510.276 665.049 510.495 665.525 510.783L664.548 512.869C664.059 512.581 663.564 512.387 663.063 512.287C662.574 512.174 662.098 512.117 661.634 512.117C660.983 512.117 660.507 512.205 660.206 512.381C659.905 512.556 659.755 512.782 659.755 513.057C659.755 513.308 659.861 513.496 660.074 513.621C660.3 513.746 660.594 513.847 660.958 513.922C661.321 513.997 661.716 514.066 662.142 514.128C662.58 514.179 663.019 514.26 663.458 514.373C663.896 514.486 664.291 514.648 664.642 514.861C665.005 515.062 665.299 515.344 665.525 515.707C665.75 516.058 665.863 516.522 665.863 517.098C665.863 517.725 665.675 518.282 665.299 518.771C664.924 519.247 664.378 519.623 663.664 519.898C662.963 520.174 662.104 520.312 661.089 520.312Z" fill="#6A6565"/>
<path d="M538.588 296.502H702.932C715.421 296.502 725.545 306.626 725.545 319.114V331.438H515.976V319.114C515.976 306.626 526.1 296.502 538.588 296.502Z" fill="#E0D9D9" stroke="#999797" stroke-width="1.76201"/>
<path d="M599.08 323.527V312.852H594.87V310.371H606.334V312.852H602.124V323.527H599.08ZM611.756 323.678C610.604 323.678 609.589 323.452 608.712 323.001C607.847 322.55 607.177 321.936 606.7 321.159C606.224 320.37 605.986 319.474 605.986 318.472C605.986 317.457 606.218 316.561 606.682 315.784C607.158 314.994 607.803 314.381 608.618 313.942C609.432 313.491 610.353 313.265 611.38 313.265C612.37 313.265 613.26 313.478 614.049 313.904C614.851 314.318 615.484 314.919 615.948 315.709C616.411 316.486 616.643 317.419 616.643 318.509C616.643 318.622 616.637 318.753 616.624 318.904C616.612 319.042 616.599 319.173 616.587 319.299H608.373V317.588H615.045L613.918 318.096C613.918 317.569 613.811 317.112 613.598 316.724C613.385 316.335 613.091 316.034 612.715 315.821C612.339 315.596 611.9 315.483 611.399 315.483C610.898 315.483 610.453 315.596 610.065 315.821C609.689 316.034 609.394 316.341 609.181 316.742C608.968 317.131 608.862 317.594 608.862 318.133V318.584C608.862 319.136 608.981 319.624 609.219 320.05C609.47 320.464 609.814 320.783 610.253 321.009C610.704 321.222 611.23 321.328 611.831 321.328C612.37 321.328 612.84 321.247 613.241 321.084C613.655 320.921 614.03 320.677 614.369 320.351L615.929 322.043C615.465 322.569 614.882 322.976 614.181 323.264C613.479 323.54 612.671 323.678 611.756 323.678ZM624.522 323.527V321.554L624.334 321.122V317.588C624.334 316.962 624.14 316.473 623.751 316.122C623.375 315.771 622.793 315.596 622.003 315.596C621.465 315.596 620.932 315.684 620.406 315.859C619.892 316.022 619.454 316.247 619.09 316.536L618.038 314.487C618.589 314.099 619.253 313.798 620.03 313.585C620.807 313.372 621.596 313.265 622.398 313.265C623.939 313.265 625.136 313.629 625.988 314.355C626.84 315.082 627.266 316.216 627.266 317.757V323.527H624.522ZM621.44 323.678C620.65 323.678 619.974 323.546 619.41 323.283C618.846 323.007 618.414 322.638 618.113 322.174C617.812 321.711 617.662 321.191 617.662 320.614C617.662 320.013 617.806 319.486 618.094 319.035C618.395 318.584 618.865 318.233 619.504 317.983C620.143 317.72 620.976 317.588 622.003 317.588H624.691V319.299H622.323C621.634 319.299 621.158 319.411 620.895 319.637C620.644 319.862 620.519 320.144 620.519 320.483C620.519 320.858 620.663 321.159 620.951 321.385C621.252 321.598 621.659 321.704 622.173 321.704C622.661 321.704 623.1 321.591 623.488 321.366C623.877 321.128 624.159 320.783 624.334 320.332L624.785 321.685C624.572 322.337 624.184 322.832 623.62 323.17C623.056 323.509 622.329 323.678 621.44 323.678ZM642.869 313.265C643.671 313.265 644.379 313.428 644.993 313.754C645.619 314.067 646.108 314.556 646.459 315.22C646.822 315.872 647.004 316.711 647.004 317.739V323.527H644.072V318.19C644.072 317.375 643.903 316.774 643.565 316.385C643.226 315.997 642.75 315.803 642.136 315.803C641.71 315.803 641.328 315.903 640.99 316.103C640.651 316.291 640.388 316.58 640.2 316.968C640.012 317.356 639.918 317.851 639.918 318.453V323.527H636.986V318.19C636.986 317.375 636.817 316.774 636.479 316.385C636.153 315.997 635.683 315.803 635.069 315.803C634.643 315.803 634.261 315.903 633.923 316.103C633.585 316.291 633.321 316.58 633.133 316.968C632.946 317.356 632.852 317.851 632.852 318.453V323.527H629.92V313.416H632.72V316.179L632.194 315.37C632.545 314.681 633.039 314.161 633.679 313.81C634.33 313.447 635.069 313.265 635.896 313.265C636.824 313.265 637.632 313.503 638.321 313.98C639.022 314.443 639.486 315.157 639.712 316.122L638.678 315.84C639.016 315.051 639.555 314.424 640.294 313.961C641.046 313.497 641.904 313.265 642.869 313.265Z" fill="#6A6565"/>
<rect x="515.976" y="296.502" width="209.569" height="265.703" rx="22.6125" stroke="#999797" stroke-width="1.76201"/>
<ellipse cx="385.919" cy="179.421" rx="20.3052" ry="20.2596" fill="#87E9E3"/>
<path d="M376.672 183.642C381.2 190.617 390.914 190.938 395.402 183.851" stroke="#6A6565" stroke-width="2.02919" stroke-linecap="round"/>
<ellipse cx="2.61638" cy="2.72917" rx="2.61638" ry="2.72917" transform="matrix(0.999937 0.0111976 -0.011248 0.999937 375.828 172.668)" fill="#6A6565"/>
<ellipse cx="2.61638" cy="2.72917" rx="2.61638" ry="2.72917" transform="matrix(0.999937 0.0111976 -0.011248 0.999937 391.057 172.668)" fill="#6A6565"/>
<path d="M355.461 222.505C355.461 211.298 364.546 202.213 375.753 202.213H396.085C407.292 202.213 416.377 211.298 416.377 222.505V233.446H355.461V222.505Z" fill="#87E9E3"/>
<path d="M345.263 179.421C345.263 190.61 336.172 199.681 324.958 199.681C313.744 199.681 304.653 190.61 304.653 179.421C304.653 168.232 313.744 159.161 324.958 159.161C336.172 159.161 345.263 168.232 345.263 179.421Z" fill="#87E9E3"/>
<path d="M315.711 183.642C320.239 190.617 329.953 190.938 334.44 183.851" stroke="#6A6565" stroke-width="2.02919" stroke-linecap="round"/>
<ellipse cx="2.61638" cy="2.72917" rx="2.61638" ry="2.72917" transform="matrix(0.999937 0.0111976 -0.011248 0.999937 314.867 172.668)" fill="#6A6565"/>
<ellipse cx="2.61638" cy="2.72917" rx="2.61638" ry="2.72917" transform="matrix(0.999937 0.0111976 -0.011248 0.999937 330.096 172.668)" fill="#6A6565"/>
<path d="M294.5 222.505C294.5 211.298 303.585 202.213 314.792 202.213H335.124C346.331 202.213 355.416 211.298 355.416 222.505V233.446H294.5V222.505Z" fill="#87E9E3"/>
<ellipse cx="446.709" cy="179.421" rx="20.3052" ry="20.2596" fill="#87E9E3"/>
<path d="M437.462 183.642C441.99 190.617 451.704 190.938 456.191 183.851" stroke="#6A6565" stroke-width="2.02919" stroke-linecap="round"/>
<ellipse cx="2.61638" cy="2.72917" rx="2.61638" ry="2.72917" transform="matrix(0.999937 0.0111976 -0.011248 0.999937 436.618 172.668)" fill="#6A6565"/>
<ellipse cx="2.61638" cy="2.72917" rx="2.61638" ry="2.72917" transform="matrix(0.999937 0.0111976 -0.011248 0.999937 451.847 172.668)" fill="#6A6565"/>
<path d="M416.251 222.505C416.251 211.298 425.336 202.213 436.543 202.213H456.875C468.082 202.213 477.167 211.298 477.167 222.505V233.446H416.251V222.505Z" fill="#87E9E3"/>
<path d="M349.106 230.161L354.969 217.005H357.977L363.859 230.161H360.664L355.853 218.546H357.056L352.225 230.161H349.106ZM352.037 227.342L352.846 225.03H359.612L360.439 227.342H352.037ZM369.267 230.311C368.315 230.311 367.457 230.098 366.693 229.672C365.928 229.234 365.321 228.626 364.87 227.849C364.431 227.073 364.212 226.158 364.212 225.105C364.212 224.04 364.431 223.119 364.87 222.342C365.321 221.566 365.928 220.964 366.693 220.538C367.457 220.112 368.315 219.899 369.267 219.899C370.12 219.899 370.865 220.087 371.504 220.463C372.143 220.839 372.638 221.409 372.989 222.173C373.34 222.938 373.515 223.915 373.515 225.105C373.515 226.283 373.346 227.26 373.008 228.037C372.669 228.802 372.181 229.372 371.542 229.748C370.915 230.124 370.157 230.311 369.267 230.311ZM369.775 227.906C370.251 227.906 370.683 227.793 371.072 227.567C371.46 227.342 371.767 227.022 371.993 226.609C372.231 226.183 372.35 225.682 372.35 225.105C372.35 224.516 372.231 224.015 371.993 223.602C371.767 223.188 371.46 222.869 371.072 222.643C370.683 222.418 370.251 222.305 369.775 222.305C369.286 222.305 368.848 222.418 368.459 222.643C368.071 222.869 367.758 223.188 367.52 223.602C367.294 224.015 367.181 224.516 367.181 225.105C367.181 225.682 367.294 226.183 367.52 226.609C367.758 227.022 368.071 227.342 368.459 227.567C368.848 227.793 369.286 227.906 369.775 227.906ZM372.425 230.161V228.094L372.481 225.087L372.293 222.098V216.215H375.225V230.161H372.425ZM390.889 219.899C391.691 219.899 392.399 220.062 393.013 220.388C393.639 220.701 394.128 221.19 394.479 221.854C394.842 222.505 395.024 223.345 395.024 224.372V230.161H392.092V224.823C392.092 224.009 391.922 223.408 391.584 223.019C391.246 222.631 390.77 222.436 390.156 222.436C389.73 222.436 389.348 222.537 389.009 222.737C388.671 222.925 388.408 223.213 388.22 223.602C388.032 223.99 387.938 224.485 387.938 225.087V230.161H385.006V224.823C385.006 224.009 384.837 223.408 384.498 223.019C384.173 222.631 383.703 222.436 383.089 222.436C382.663 222.436 382.281 222.537 381.942 222.737C381.604 222.925 381.341 223.213 381.153 223.602C380.965 223.99 380.871 224.485 380.871 225.087V230.161H377.939V220.05H380.74V222.812L380.213 222.004C380.564 221.315 381.059 220.795 381.698 220.444C382.35 220.081 383.089 219.899 383.916 219.899C384.843 219.899 385.651 220.137 386.34 220.613C387.042 221.077 387.506 221.791 387.731 222.756L386.697 222.474C387.036 221.685 387.575 221.058 388.314 220.595C389.066 220.131 389.924 219.899 390.889 219.899ZM397.652 230.161V220.05H400.584V230.161H397.652ZM399.118 218.64C398.579 218.64 398.14 218.483 397.802 218.17C397.464 217.857 397.295 217.468 397.295 217.005C397.295 216.541 397.464 216.153 397.802 215.839C398.14 215.526 398.579 215.37 399.118 215.37C399.656 215.37 400.095 215.52 400.433 215.821C400.772 216.109 400.941 216.485 400.941 216.948C400.941 217.437 400.772 217.844 400.433 218.17C400.107 218.483 399.669 218.64 399.118 218.64ZM409.451 219.899C410.253 219.899 410.967 220.062 411.593 220.388C412.232 220.701 412.733 221.19 413.097 221.854C413.46 222.505 413.642 223.345 413.642 224.372V230.161H410.71V224.823C410.71 224.009 410.528 223.408 410.165 223.019C409.814 222.631 409.313 222.436 408.661 222.436C408.198 222.436 407.778 222.537 407.402 222.737C407.039 222.925 406.75 223.22 406.537 223.621C406.337 224.021 406.237 224.535 406.237 225.162V230.161H403.305V220.05H406.105V222.85L405.579 222.004C405.942 221.328 406.462 220.808 407.139 220.444C407.816 220.081 408.586 219.899 409.451 219.899ZM419.701 230.311C418.837 230.311 418.004 230.211 417.202 230.011C416.412 229.798 415.786 229.535 415.322 229.221L416.3 227.116C416.763 227.405 417.308 227.643 417.935 227.831C418.574 228.006 419.2 228.094 419.814 228.094C420.491 228.094 420.967 228.012 421.243 227.849C421.531 227.686 421.675 227.461 421.675 227.173C421.675 226.935 421.562 226.759 421.337 226.647C421.124 226.521 420.835 226.427 420.472 226.365C420.109 226.302 419.708 226.239 419.269 226.177C418.843 226.114 418.411 226.033 417.972 225.932C417.534 225.82 417.133 225.657 416.769 225.444C416.406 225.231 416.112 224.942 415.886 224.579C415.673 224.216 415.567 223.746 415.567 223.169C415.567 222.53 415.748 221.967 416.112 221.478C416.488 220.989 417.026 220.607 417.728 220.331C418.43 220.043 419.269 219.899 420.247 219.899C420.936 219.899 421.637 219.974 422.352 220.125C423.066 220.275 423.661 220.494 424.137 220.783L423.16 222.869C422.671 222.581 422.176 222.386 421.675 222.286C421.186 222.173 420.71 222.117 420.247 222.117C419.595 222.117 419.119 222.205 418.818 222.38C418.517 222.555 418.367 222.781 418.367 223.057C418.367 223.307 418.474 223.495 418.687 223.621C418.912 223.746 419.207 223.846 419.57 223.921C419.933 223.996 420.328 224.065 420.754 224.128C421.193 224.178 421.631 224.26 422.07 224.372C422.508 224.485 422.903 224.648 423.254 224.861C423.617 225.061 423.912 225.343 424.137 225.707C424.363 226.058 424.475 226.521 424.475 227.098C424.475 227.724 424.287 228.282 423.912 228.77C423.536 229.246 422.991 229.622 422.276 229.898C421.575 230.174 420.716 230.311 419.701 230.311Z" fill="#6A6565"/>
<ellipse cx="385.533" cy="94.421" rx="20.3052" ry="20.2596" fill="#E0D9D9"/>
<path d="M376.286 98.6416C380.814 105.617 390.528 105.938 395.015 98.8513" stroke="#6A6565" stroke-width="2.02919" stroke-linecap="round"/>
<ellipse cx="2.61638" cy="2.72917" rx="2.61638" ry="2.72917" transform="matrix(0.999937 0.0111976 -0.011248 0.999937 375.442 87.6677)" fill="#6A6565"/>
<ellipse cx="2.61638" cy="2.72917" rx="2.61638" ry="2.72917" transform="matrix(0.999937 0.0111976 -0.011248 0.999937 390.671 87.6677)" fill="#6A6565"/>
<path d="M355.075 137.505C355.075 126.298 364.16 117.213 375.367 117.213H395.699C406.906 117.213 415.991 126.298 415.991 137.505V148.446H355.075V137.505Z" fill="#E0D9D9"/>
<path d="M356.409 146.518C355.211 146.518 354.1 146.323 353.076 145.934C352.066 145.544 351.185 144.996 350.435 144.289C349.699 143.582 349.122 142.752 348.704 141.8C348.299 140.847 348.097 139.808 348.097 138.683C348.097 137.557 348.299 136.518 348.704 135.566C349.122 134.614 349.706 133.784 350.457 133.077C351.207 132.37 352.087 131.822 353.097 131.432C354.107 131.042 355.204 130.848 356.387 130.848C357.585 130.848 358.682 131.042 359.677 131.432C360.687 131.822 361.56 132.37 362.296 133.077C363.047 133.784 363.631 134.614 364.05 135.566C364.468 136.504 364.677 137.543 364.677 138.683C364.677 139.808 364.468 140.855 364.05 141.821C363.631 142.774 363.047 143.603 362.296 144.311C361.56 145.003 360.687 145.544 359.677 145.934C358.682 146.323 357.592 146.518 356.409 146.518ZM356.387 143.531C357.066 143.531 357.686 143.416 358.249 143.185C358.826 142.954 359.331 142.622 359.764 142.189C360.197 141.756 360.529 141.244 360.76 140.653C361.005 140.061 361.128 139.404 361.128 138.683C361.128 137.961 361.005 137.305 360.76 136.713C360.529 136.122 360.197 135.609 359.764 135.176C359.345 134.744 358.848 134.412 358.27 134.181C357.693 133.95 357.066 133.835 356.387 133.835C355.709 133.835 355.081 133.95 354.504 134.181C353.942 134.412 353.444 134.744 353.011 135.176C352.578 135.609 352.239 136.122 351.994 136.713C351.763 137.305 351.647 137.961 351.647 138.683C351.647 139.39 351.763 140.047 351.994 140.653C352.239 141.244 352.571 141.756 352.989 142.189C353.422 142.622 353.927 142.954 354.504 143.185C355.081 143.416 355.709 143.531 356.387 143.531ZM369.737 146.259L365.538 134.614H368.719L372.204 144.635H370.689L374.325 134.614H377.182L380.711 144.635H379.195L382.788 134.614H385.775L381.555 146.259H378.286L375.191 137.666H376.187L372.983 146.259H369.737ZM394.423 134.441C395.346 134.441 396.169 134.628 396.89 135.003C397.626 135.364 398.204 135.927 398.622 136.692C399.04 137.442 399.25 138.409 399.25 139.592V146.259H395.873V140.111C395.873 139.174 395.664 138.481 395.245 138.034C394.841 137.586 394.264 137.363 393.514 137.363C392.98 137.363 392.497 137.478 392.064 137.709C391.645 137.925 391.313 138.264 391.068 138.726C390.837 139.188 390.722 139.78 390.722 140.501V146.259H387.345V134.614H390.57V137.839L389.964 136.865C390.383 136.086 390.981 135.487 391.761 135.068C392.54 134.65 393.427 134.441 394.423 134.441ZM408.174 146.432C406.847 146.432 405.678 146.172 404.668 145.652C403.672 145.133 402.9 144.426 402.352 143.531C401.803 142.622 401.529 141.591 401.529 140.436C401.529 139.267 401.796 138.236 402.33 137.341C402.878 136.432 403.621 135.725 404.559 135.22C405.497 134.7 406.558 134.441 407.741 134.441C408.881 134.441 409.906 134.686 410.815 135.176C411.738 135.653 412.467 136.345 413.001 137.254C413.535 138.149 413.802 139.224 413.802 140.479C413.802 140.609 413.794 140.761 413.78 140.934C413.766 141.093 413.751 141.244 413.737 141.388H404.278V139.419H411.962L410.663 140.003C410.663 139.397 410.541 138.871 410.295 138.423C410.05 137.976 409.711 137.63 409.278 137.384C408.845 137.124 408.34 136.995 407.763 136.995C407.186 136.995 406.673 137.124 406.226 137.384C405.793 137.63 405.454 137.983 405.209 138.445C404.963 138.892 404.841 139.426 404.841 140.047V140.566C404.841 141.201 404.978 141.764 405.252 142.254C405.541 142.73 405.937 143.098 406.442 143.358C406.962 143.603 407.568 143.726 408.261 143.726C408.881 143.726 409.422 143.632 409.884 143.445C410.36 143.257 410.793 142.976 411.183 142.601L412.979 144.549C412.445 145.155 411.774 145.624 410.966 145.956C410.158 146.273 409.227 146.432 408.174 146.432ZM416.05 146.259V134.614H419.275V137.904L418.82 136.951C419.167 136.129 419.722 135.508 420.487 135.09C421.252 134.657 422.182 134.441 423.279 134.441V137.557C423.135 137.543 423.005 137.536 422.889 137.536C422.774 137.521 422.651 137.514 422.521 137.514C421.598 137.514 420.848 137.781 420.27 138.315C419.708 138.834 419.426 139.65 419.426 140.761V146.259H416.05Z" fill="#6A6565"/>
<path d="M150.439 294.368L150.436 286.514C150.433 276.774 158.334 268.878 168.074 268.886L388.907 269.081L603.733 269.27C613.448 269.279 621.322 277.149 621.336 286.864L621.347 294.783" stroke="#999797" stroke-width="1.76201" stroke-linecap="round"/>
<path d="M385.881 243.348L385.294 296.208" stroke="#716C6C" stroke-width="1.76201" stroke-linecap="round"/>
</svg>
